<?xml version="1.0"?>
<svg xmlns="http://www.w3.org/2000/svg" version="1.1" viewBox="0 0 201.1 146.3" width="900px" height="654px"><defs><style> .cls-1, .cls-2 { fill: #e20613; } .cls-2 { fill-rule: evenodd; } </style></defs><g><g id="Ebene_1"><g><path class="cls-2" d="M41.7,76.7h20.6l-19.4-60.3h-23.6L0,76.7h20.6l2.1-9.5h16.9l2.1,9.5ZM26.2,51.7l5-22.4,5,22.4h-10ZM180.5,76.7h20.6l-19.4-60.3h-23.6l-19.3,60.3h20.6l2.1-9.5h16.9l2.1,9.5ZM164.9,51.7l5-22.4,5,22.4h-10ZM74.5,16.4l10.3,35.4,10.3-35.4h20.1l-19.3,60.3h-22.1l-19.4-60.3h20.1ZM126.6,16.4h20.1l-19.3,60.3h-20.1l19.4-60.3ZM131.8,0h20.1l-3.5,10.9h-20.1l3.5-10.9Z"/><rect class="cls-1" y="109.5" width="201.1" height="36.8"/><rect class="cls-1" y="91.4" width="201.1" height="10.9"/></g></g></g></svg>
