<?xml version="1.0"?>
<svg xmlns="http://www.w3.org/2000/svg" version="1.1" viewBox="0 0 283.5 57.8" width="900px" height="184px"><defs><style> .cls-1 { fill: #3a3e77; } </style></defs><g><g id="Logo"><path class="cls-1" d="M87.2,16.3c-3.5,0-6.5,1.1-8.8,3V4.4h-10.3v45.2h9.5v-2.8c2.3,2.3,5.5,3.6,9.4,3.6,9.5,0,16.2-7.3,16.2-17.1s-6.6-17.1-15.9-17.1ZM85.5,41.3c-4.5,0-7.6-3.3-7.6-8s3-8,7.6-8,7.5,3.4,7.5,8-3.2,8-7.5,8ZM132.2,20.4c-2.3-2.3-5.4-3.5-9.4-3.5-9.5,0-16.3,6.7-16.3,16.4s6.8,17.1,16.3,17.1,7.1-1.4,9.4-3.8v3h9.5V17h-9.5v3.4ZM124.3,41.3c-4.4,0-7.5-3.3-7.5-8s3.2-8,7.5-8,7.5,3.3,7.5,8-3,8-7.5,8ZM148.6,49.6h10.3V4.4h-10.3v45.2ZM181.2,16.3c-10.4,0-17.8,7.3-17.8,17.1s7.4,17.1,17.8,17.1,17.9-7.4,17.9-17.1-7.4-17.1-17.9-17.1ZM181.3,41.3c-4.5,0-7.5-3.3-7.5-7.9s3-7.9,7.5-7.9,7.4,3.2,7.4,7.9-3,8-7.4,8ZM208.9,0c-3.6,0-6.8,2.7-6.8,6.4s3.1,6.3,6.8,6.3,6.5-2.6,6.5-6.3-2.8-6.4-6.5-6.4ZM203.7,49.6h10.3V17h-10.3v32.6ZM229.7,25.9c0-1.4,1.1-2.2,3.2-2.2s3.7,1.1,4.5,3.1l8.5-3.3c-1.3-4.6-6.1-7.2-12.8-7.2s-13.4,3.8-13.4,10.1c0,11.2,17,8.7,17,13.8s-1.2,2.4-3.6,2.4c-3.3,0-5.5-1.5-6.4-4.3l-8.5,3.3c1.9,5.7,7.2,8.7,14.5,8.7s14-4.1,14-10.8c0-12-17-9-17-13.7ZM283.5,32.7c0-8-6.3-16.4-16.9-16.4s-16.9,7.7-16.9,17.1,6.8,17.1,17.6,17.1,11.3-2.7,13.8-5.9l-5.9-5.9c-1.9,2.3-3.9,3.4-7.6,3.4s-6.8-2-7.9-5.6h23.6c.1-.9.2-2.1.2-3.7ZM259.5,30c.9-4,3.5-6,7.3-6s6.2,2.3,7.1,6h-14.4ZM.7,27.8c-1,1-1,2.5,0,3.4l25.9,25.9c1,1,2.5,1,3.4,0l14.4-14.4-8.8-8.8-7.3,7.3-11.9-11.9,11.9-11.9,20.6,20.6,7-7c1-1,1-2.5,0-3.4L30.1,1.8c-1-1-2.5-1-3.4,0L.7,27.8Z"/></g></g></svg>
