<?xml version="1.0"?>
<svg xmlns="http://www.w3.org/2000/svg" version="1.1" viewBox="0 0 356 156.1" width="900px" height="395px"><defs><style> .cls-1 { fill: #1d1d1b; } .cls-2 { fill: #fff; } </style></defs><g><g id="Ebene_1"><rect class="cls-1" x="-3055.7" y="-1106.3" width="1615.7" height="708.7"/><g><path class="cls-2" d="M-2842.8-809.3c0-22.9-15.3-30.3-25.8-32.7v-.4c9-3.3,22.7-9.8,22.7-31.5s-12.9-33.6-41.1-33.6h-39.9v136.5h41.7c24.3,0,42.4-13.5,42.4-38.3ZM-2902.7-889.1h12.3c11.9,0,20.1,6.9,20.1,18.4s-7.2,20.3-19.6,20.3h-12.9v-38.7ZM-2902.7-790.1v-41.9h13.1c15.4,0,21.7,9,21.7,20.9s-7.4,20.9-20.9,20.9h-13.9Z"/><path class="cls-2" d="M-2779.7-803.8h46.9l9.6,32.9h25.8l-44-136.5h-27.4l-45.8,136.5h25l9.8-32.9ZM-2755.6-886.7h.4l17.2,63.8h-36.4l18.8-63.8Z"/><polygon class="cls-2" points="-2647 -770.9 -2622 -770.9 -2622 -825.1 -2581.7 -907.5 -2608.7 -907.5 -2633.7 -852.9 -2660.3 -907.5 -2687.3 -907.5 -2647 -825.7 -2647 -770.9"/><path class="cls-2" d="M-2537.1-803.8h46.9l9.6,32.9h25.8l-44-136.5h-27.4l-45.8,136.5h25l9.8-32.9ZM-2513-886.7h.4l17.2,63.8h-36.4l18.8-63.8Z"/><path class="cls-2" d="M-2395.1-829.6h5.7c9.2,0,15.6,3.5,19,14.3l13.5,44.4h26.6l-17.8-52c-4.3-12.7-10-15.1-15.1-15.8v-.6c15.3-2.3,26.4-14.3,26.4-32.1s-16.4-36-40.7-36h-42.6v136.5h25v-58.7ZM-2395.1-888.3h10.2c14.1,0,22.3,3.9,22.3,19.6s-9,20.7-22.3,20.7h-10.2v-40.3Z"/><path class="cls-2" d="M-2191.8-839.2c0-45.2-22.7-68.3-65.3-68.3h-35.6v136.5h35.6c37.9,0,65.3-22.3,65.3-68.3ZM-2267.7-790.1v-98.2h8.4c28.2,0,40.9,19.2,40.9,49.1s-12.7,49.1-40.9,49.1h-8.4Z"/><path class="cls-2" d="M-2021-769c12.3,0,24.4-2.2,29.5-4.9l-1.4-22.9c-5.7,4.1-13.7,7-25.8,7-20.7,0-38.5-14.1-38.5-49.5s17.8-49.5,38.5-49.5,20.7,4.9,25.8,7.4l1.4-22.5c-5.1-2-16.4-5.7-30.3-5.7-40.7,0-62,30.3-62,70.2s21.3,70.2,62.8,70.2Z"/><path class="cls-2" d="M-1950.2-779.9c0,6.9,4.7,11.3,10.8,11.3s11.2-4.5,11.2-11.3-4.7-11.1-11-11.1-11,4.9-11,11.1Z"/><path class="cls-2" d="M-1915.2-788.1c0,3.1,1.6,4.7,2.5,4.7,6.7,1.8,12.1,6.1,12.1,13.1s-5.5,12.7-15.1,16.6l2.2,5.7c12.1-3.7,25.6-11.9,25.6-27.2s-10.8-21.1-17.8-21.1-9.6,3.3-9.6,8.2Z"/><polygon class="cls-2" points="-1706.2 -790.9 -1751.2 -790.9 -1751.2 -907.5 -1776.3 -907.5 -1776.3 -770.9 -1706.2 -770.9 -1706.2 -790.9"/><path class="cls-2" d="M-1669.1-779.9c0,6.9,4.7,11.3,10.8,11.3s11.1-4.5,11.1-11.3-4.7-11.1-11-11.1-11,4.9-11,11.1Z"/><path class="cls-2" d="M-1586.7-779.9c0-6.3-4.7-11.1-10.9-11.1s-11,4.9-11,11.1,4.7,11.3,10.8,11.3,11.1-4.5,11.1-11.3Z"/><path class="cls-2" d="M-1935.5-838.7c14.2,0,27.2-10.6,27.2-35.1s-13-35.1-27.2-35.1-27.2,10.6-27.2,35.1,13,35.1,27.2,35.1ZM-1935.5-899.3c7.9,0,14.3,6.8,14.3,25.5s-6.4,25.5-14.3,25.5-14.3-6.7-14.3-25.5,6.4-25.5,14.3-25.5Z"/><polygon class="cls-2" points="-1669 -835.1 -1656.5 -835.1 -1656.5 -893.4 -1641.3 -893.4 -1641.3 -903.3 -1684.3 -903.3 -1684.3 -893.4 -1669 -893.4 -1669 -835.1"/><path class="cls-2" d="M-1600.1-903.3h-17.8v68.3h17.8c19,0,32.7-11.1,32.7-34.1s-11.3-34.2-32.7-34.2ZM-1601.2-844.6h-4.2v-49.1h4.2c14.1,0,20.4,9.6,20.4,24.6s-6.4,24.5-20.4,24.5Z"/><rect class="cls-2" x="-2928.1" y="-728.6" width="1350.2" height="7.5"/><g><path class="cls-2" d="M-2745.1-663.7h13.9l12.3,54.4h.2l11.3-54.4h18l11.6,54.4h.2l12.4-54.4h12.9l-17.2,68.1h-17l-11.9-54.4h-.2l-11.7,54.4h-17.1l-17.5-68.1Z"/><path class="cls-2" d="M-2585.3-664.9c20.7,0,32.3,14.4,32.3,35s-11.4,35.4-32.3,35.4-32.3-14.5-32.3-35.4,11.4-35,32.3-35ZM-2585.3-605.2c13.5,0,18.5-12.4,18.5-24.7s-5.4-24.3-18.5-24.3-18.5,12.3-18.5,24.3,5,24.7,18.5,24.7Z"/><path class="cls-2" d="M-2511.6-663.7h21.2l15.7,51.6h.2l15.7-51.6h21.2v68.1h-12.7v-56.2h-.2l-17.8,56.2h-12.7l-17.8-56.2-.2.2v56h-12.7v-68.1Z"/><path class="cls-2" d="M-2393-663.7h39v10.7h-25.7v16.8h23.5v10.7h-23.5v19.1h25.9v10.7h-39.2v-68.1Z"/><path class="cls-2" d="M-2311.7-663.7h16.3l25.2,50.9h.2v-50.9h12.7v68.1h-16.2l-25.3-50.9h-.2v50.9h-12.7v-68.1Z"/><path class="cls-2" d="M-2116.7-617.8c3.2-3.8,4-9.6,4.2-14.8h11.5c-.4,8.7-3.1,16.8-8.4,23.3l11.8,13.6h-16.3l-4.4-6c-4.6,4.9-11.4,7.2-18,7.2-13.1,0-23.6-7-23.6-19.8s3.4-14.1,13.9-18.7c-5.1-5-9.2-8.6-9.2-16.4s10.8-15.5,20.1-15.5,19,4.4,19,15.4-5.6,13.7-12.8,18l12.1,13.6ZM-2139.1-625.6c-4.4,2.3-8,5.6-8,10.9s5,10,11.2,10,8.6-1.2,11.5-4.1l-14.7-16.9ZM-2127.6-648.3c0-4.8-3.5-7-7.3-7s-7.6,2.2-7.6,7.2,3.7,7,6.2,9.7c3.3-1.8,8.6-5.8,8.6-9.8Z"/><path class="cls-2" d="M-2004.6-663.7h21.2l15.7,51.6h.2l15.7-51.6h21.2v68.1h-12.7v-56.2h-.2l-17.8,56.2h-12.7l-17.8-56.2-.2.2v56h-12.7v-68.1Z"/><path class="cls-2" d="M-1886-663.7h39v10.7h-25.7v16.8h23.5v10.7h-23.5v19.1h25.9v10.7h-39.2v-68.1Z"/><path class="cls-2" d="M-1804.8-663.7h16.3l25.2,50.9h.2v-50.9h12.7v68.1h-16.2l-25.3-50.9h-.2v50.9h-12.7v-68.1Z"/></g></g><g><rect class="cls-1" width="356" height="156.1"/><g><path class="cls-2" d="M46.9,65.4c0-5-3.4-6.7-5.7-7.2h0c2-.8,5-2.2,5-7s-2.8-7.4-9.1-7.4h-8.8v30.1h9.2c5.3,0,9.4-3,9.4-8.5ZM33.7,47.9h2.7c2.6,0,4.4,1.5,4.4,4.1s-1.6,4.5-4.3,4.5h-2.8v-8.5ZM33.7,69.7v-9.2h2.9c3.4,0,4.8,2,4.8,4.6s-1.6,4.6-4.6,4.6h-3.1Z"/><path class="cls-2" d="M60.8,66.6h10.3l2.1,7.2h5.7l-9.7-30.1h-6l-10.1,30.1h5.5l2.2-7.2ZM66.1,48.4h0l3.8,14.1h-8l4.1-14.1Z"/><polygon class="cls-2" points="90 73.9 95.6 73.9 95.6 62 104.4 43.8 98.5 43.8 93 55.8 87.1 43.8 81.2 43.8 90 61.8 90 73.9"/><path class="cls-2" d="M114.3,66.6h10.3l2.1,7.2h5.7l-9.7-30.1h-6l-10.1,30.1h5.5l2.2-7.2ZM119.6,48.4h0l3.8,14.1h-8l4.1-14.1Z"/><path class="cls-2" d="M145.6,61h1.2c2,0,3.4.8,4.2,3.1l3,9.8h5.9l-3.9-11.5c-.9-2.8-2.2-3.3-3.3-3.5h0c3.4-.6,5.8-3.3,5.8-7.2s-3.6-7.9-9-7.9h-9.4v30.1h5.5v-12.9ZM145.6,48h2.2c3.1,0,4.9.9,4.9,4.3s-2,4.6-4.9,4.6h-2.2v-8.9Z"/><path class="cls-2" d="M190.3,58.8c0-10-5-15-14.4-15h-7.8v30.1h7.8c8.4,0,14.4-4.9,14.4-15ZM173.6,69.7v-21.6h1.9c6.2,0,9,4.2,9,10.8s-2.8,10.8-9,10.8h-1.9Z"/><path class="cls-2" d="M228,74.3c2.7,0,5.4-.5,6.5-1.1l-.3-5c-1.3.9-3,1.6-5.7,1.6-4.6,0-8.5-3.1-8.5-10.9s3.9-10.9,8.5-10.9,4.6,1.1,5.7,1.6l.3-5c-1.1-.4-3.6-1.2-6.7-1.2-9,0-13.7,6.7-13.7,15.5s4.7,15.5,13.8,15.5Z"/><path class="cls-2" d="M243.6,71.9c0,1.5,1,2.5,2.4,2.5s2.5-1,2.5-2.5-1-2.5-2.4-2.5-2.4,1.1-2.4,2.5Z"/><path class="cls-2" d="M251.3,70.1c0,.7.3,1,.6,1,1.5.4,2.7,1.3,2.7,2.9s-1.2,2.8-3.3,3.7l.5,1.2c2.7-.8,5.6-2.6,5.6-6s-2.4-4.7-3.9-4.7-2.1.7-2.1,1.8Z"/><polygon class="cls-2" points="297.3 69.5 287.4 69.5 287.4 43.8 281.9 43.8 281.9 73.9 297.3 73.9 297.3 69.5"/><path class="cls-2" d="M305.5,71.9c0,1.5,1,2.5,2.4,2.5s2.5-1,2.5-2.5-1-2.5-2.4-2.5-2.4,1.1-2.4,2.5Z"/><path class="cls-2" d="M323.7,71.9c0-1.4-1-2.5-2.4-2.5s-2.4,1.1-2.4,2.5,1,2.5,2.4,2.5,2.5-1,2.5-2.5Z"/><path class="cls-2" d="M246.8,59c3.1,0,6-2.3,6-7.7s-2.9-7.7-6-7.7-6,2.3-6,7.7,2.9,7.7,6,7.7ZM246.8,45.6c1.7,0,3.1,1.5,3.1,5.6s-1.4,5.6-3.1,5.6-3.1-1.5-3.1-5.6,1.4-5.6,3.1-5.6Z"/><polygon class="cls-2" points="305.5 59.8 308.3 59.8 308.3 46.9 311.6 46.9 311.6 44.7 302.2 44.7 302.2 46.9 305.5 46.9 305.5 59.8"/><path class="cls-2" d="M320.7,44.7h-3.9v15h3.9c4.2,0,7.2-2.5,7.2-7.5s-2.5-7.5-7.2-7.5ZM320.5,57.6h-.9v-10.8h.9c3.1,0,4.5,2.1,4.5,5.4s-1.4,5.4-4.5,5.4Z"/><rect class="cls-2" x="28.1" y="83.2" width="297.5" height="1.6"/><g><path class="cls-2" d="M68.4,97.5h3.1l2.7,12h0l2.5-12h4l2.6,12,2.8-12h2.8l-3.8,15h-3.8l-2.6-12h0l-2.6,12h-3.8l-3.9-15Z"/><path class="cls-2" d="M103.6,97.3c4.6,0,7.1,3.2,7.1,7.7s-2.5,7.8-7.1,7.8-7.1-3.2-7.1-7.8,2.5-7.7,7.1-7.7ZM103.6,110.4c3,0,4.1-2.7,4.1-5.4s-1.2-5.3-4.1-5.3-4.1,2.7-4.1,5.3,1.1,5.4,4.1,5.4Z"/><path class="cls-2" d="M119.9,97.5h4.7l3.5,11.4h0l3.5-11.4h4.7v15h-2.8v-12.4h0l-3.9,12.4h-2.8l-3.9-12.4h0v12.4h-2.8v-15Z"/><path class="cls-2" d="M146,97.5h8.6v2.4h-5.7v3.7h5.2v2.4h-5.2v4.2h5.7v2.4h-8.6v-15Z"/><path class="cls-2" d="M163.9,97.5h3.6l5.5,11.2h0v-11.2h2.8v15h-3.6l-5.6-11.2h0v11.2h-2.8v-15Z"/><path class="cls-2" d="M206.9,107.6c.7-.8.9-2.1.9-3.3h2.5c0,1.9-.7,3.7-1.9,5.1l2.6,3h-3.6l-1-1.3c-1,1.1-2.5,1.6-4,1.6-2.9,0-5.2-1.5-5.2-4.4s.8-3.1,3.1-4.1c-1.1-1.1-2-1.9-2-3.6s2.4-3.4,4.4-3.4,4.2,1,4.2,3.4-1.2,3-2.8,4l2.7,3ZM201.9,105.9c-1,.5-1.8,1.2-1.8,2.4s1.1,2.2,2.5,2.2,1.9-.3,2.5-.9l-3.2-3.7ZM204.5,100.9c0-1.1-.8-1.5-1.6-1.5s-1.7.5-1.7,1.6.8,1.5,1.4,2.1c.7-.4,1.9-1.3,1.9-2.2Z"/><path class="cls-2" d="M231.6,97.5h4.7l3.5,11.4h0l3.5-11.4h4.7v15h-2.8v-12.4h0l-3.9,12.4h-2.8l-3.9-12.4h0v12.4h-2.8v-15Z"/><path class="cls-2" d="M257.7,97.5h8.6v2.4h-5.7v3.7h5.2v2.4h-5.2v4.2h5.7v2.4h-8.6v-15Z"/><path class="cls-2" d="M275.6,97.5h3.6l5.5,11.2h0v-11.2h2.8v15h-3.6l-5.6-11.2h0v11.2h-2.8v-15Z"/></g></g></g></g></g></svg>
