<?xml version="1.0"?>
<svg xmlns="http://www.w3.org/2000/svg" version="1.1" viewBox="0 0 289.1 289.1" width="900px" height="900px"><defs><style> .cls-1 { fill: #5291ce; } .cls-1, .cls-2, .cls-3 { fill-rule: evenodd; } .cls-2 { fill: #e30613; } .cls-4 { fill: #fff; } .cls-5, .cls-3 { fill: #002e45; } </style></defs><g><g id="Ebene_1"><g><polygon class="cls-4" points="289.1 289.1 289.1 0 0 0 0 289.1 289.1 289.1 289.1 289.1"/><path class="cls-1" d="M289.1,27.9V0H0v27.9h289.1ZM289.1,289.1v-98.7l-144.6,90L0,190.4v98.7h289.1Z"/><path class="cls-2" d="M55.1,77c1.6-.7,3-1.8,4-3h0,0c1.8-2.3,2.7-5.3,2.7-8.3s-.7-5.9-1.8-8h0c-2.9-5.3-8.9-7.6-15.9-7.6h-25.8v7.6h0s0,0,0,0v47.8h28.5c8.8,0,17.1-5.3,17.4-15.1h0c0-.2,0-.4,0-.5,0-5.5-3.2-11.6-9-12.8ZM31.8,61.6h10.2c3.2,0,5.5,1.7,5.5,5.2s-2,5.2-4.6,5.2h-11v-10.4ZM49,90.3h0c-.7,2.8-3,3.5-6.2,3.5h-11v-11h11.6c3.2,0,5.8,1.5,5.8,5.5s0,1.4-.2,2Z"/><path class="cls-2" d="M157,74h0c-2.1-.9-4.5-1.6-7-2.2-3.5-.9-11-1.2-11-6.1s3.5-4.9,6.7-4.9,8.4,2.3,11.6,4.6l7.2-7.7.9-1c-5.2-4.6-13.1-8.1-20.3-8.1s-14.5,3.2-18,9.1h.2s-.2,0-.2,0c-1.4,2.4-2.3,5.1-2.3,8.3s.7,5.7,2,8h0c1.9,3.4,5.1,6,9.3,7.4,5.5,2,8.7,2.3,12.2,3.2,2.3.6,4.4,2.3,4.4,4.6s0,.8-.1,1.1c-.5,2.8-3.2,4.1-6,4.1s-8-1.9-11.4-4.1h0c-1.4-.9-2.7-1.9-3.9-2.8l-2.7,2.8-6,6.5c6.7,5.8,13.9,9.6,22.9,9.6s20.4-5.3,21.4-16h0c0-.6,0-1.1,0-1.7,0-7.7-3.9-12.1-9.8-14.7Z"/><path class="cls-2" d="M207.8,87.2c-.6,1.1-1.3,2.2-2.2,3.1h0c-1.9,1.9-4.4,3.3-7.3,3.3s-6.5-1.2-8.5-3.3h0c-2.8-2.9-4-7.6-4-13s0-2.2.2-3.3h0,0c.9-6.8,4.4-12.4,11.7-12.4s8.1,2.9,10.2,6.4l11-7.3c-.7-1.1-1.4-2.1-2.2-3.1h0c-4.9-6-11.6-8.8-19.6-8.8s-14.8,3.4-19.2,8.8h0c-3.6,4.4-5.9,10.1-6.5,16.3h0s0,0,0,0c-.1,1.1-.2,2.2-.2,3.3,0,4.7.8,9.1,2.3,13h0c3.8,9.9,12.4,16.3,24.7,16.3s16-3.8,20.6-11.9l-6.5-4.4-4.6-3.1Z"/><polygon class="cls-2" points="255.9 50 255.9 70.4 239.1 70.4 239.1 50 224.3 50 224.3 105.5 239.1 105.5 239.1 83.7 255.9 83.7 255.9 105.5 270.7 105.5 270.7 50 255.9 50"/><path class="cls-2" d="M119.6,74h0c-.6-6.2-2.6-11.9-6.1-16.3h0c-4.3-5.4-10.8-8.8-19.5-8.8s-15.2,3.5-19.5,8.8h0c-3.5,4.4-5.6,10.2-6.1,16.3h0s0,0,0,0c-.1,1.2-.2,2.4-.2,3.6,0,4.5.8,8.8,2.3,12.7h0c3.6,9.3,11.5,16,23.6,16s20.1-6.8,23.6-16c1.5-3.9,2.2-8.2,2.2-12.7s0-2.4-.2-3.6ZM101.5,90.3h0c-1.9,1.7-4.3,2.7-7.5,2.7s-5.6-1-7.4-2.7h0c-3.1-2.8-4.5-7.6-4.5-12.7s0-2.4.2-3.6h0,0c.9-6.7,4.5-11.8,11.7-11.8s10.7,5.2,11.7,11.8h0c.2,1.2.2,2.4.2,3.6,0,5.2-1.3,9.9-4.4,12.7Z"/><path class="cls-3" d="M56.5,159.5c0-1.8-.3-3.4-.7-4.7h0,0c-2.1-6.1-8.5-8.1-14.9-9.5l-4.9-1.2c-2.4-.5-4.4-.9-5.9-1.6h0,0c-1.8-.8-2.8-1.9-2.8-3.9,0-3.5,3.5-5.8,9-5.8s7.5,1.5,10.5,4.6c1.2,1.2,1.5,1.7,2,2.3l7.3-5.5c-.6-.9-.9-1.5-1.5-2-2.7-3-5.7-4.9-8.7-6h0c-3.1-1.2-6.2-1.5-9-1.5s-6.3.5-9.2,1.5h0s0,0,0,0c-5.6,2.1-10,6.3-10,13.3s.1,2.1.3,3.1h0c1.9,8.8,11.8,9.8,13.9,10.3l5.8,1.5c.8.2,1.6.3,2.4.5l.8.2c3,.7,5.7,1.8,5.7,5.4s-.9,3.5-2.4,4.6h0s0,0,0,0c-1.6,1.1-3.9,1.8-6.8,1.8s-6.4-.7-8.6-1.8c-1.8-.9-3.3-2.1-4.5-3.4q-1.2-1.2-1.7-2l-7.5,5.2c0,0,0,.2.1.3.4.7,1.6,2.3,3.3,3.8,4.6,4.4,11,6.1,17.4,6.1s16.7-2.5,19.6-9.9h0,0c.6-1.6,1-3.4,1-5.5Z"/><path class="cls-3" d="M100.7,165l-6.7-3.7c-1.1,1.7-2.4,2.9-3.8,3.7h0,0c-1.9,1.1-4,1.5-6.1,1.5s-4.5-.5-6.2-1.5h0c-2.6-1.5-4.2-4.2-4.5-8.1h27.9c0-.7,0-1.4,0-2.1h-.1.1c-.3-4.7-1.4-8.9-3.5-12.3h0c-2.9-4.5-7.8-7.4-15-7.4s-12.3,2.9-15.4,7.4h0s0,0,0,0c-2.3,3.3-3.4,7.5-3.5,12.2,0,.1,0,.2,0,.4,0,3.6.8,7,2.2,9.8h0c3.1,6.2,9.1,10.2,17.2,10.2s13.6-3.8,18.6-9.6l-1.1-.6ZM81,142.5h0,0c.6-.1,1.3-.2,2-.2s1.3,0,2,.2h0c3.3.7,5.7,3,6.4,7.7h-17.7c.8-3.8,3.3-6.9,7.3-7.7Z"/><path class="cls-3" d="M119.5,142.3v-6.1h-8.7v37.7h8.7v-16c0-.5,0-.9,0-1.3h.1c.7-8.5,3.7-12,12-12v-9.3c-5.2,0-9.9,1.5-12.2,7Z"/><polygon class="cls-3" points="170.3 136.2 160.4 136.2 158.7 142.5 155.4 154.8 152.9 164.1 150.4 154.8 147 142.5 145.3 136.2 135.5 136.2 137.5 142.5 137.5 142.5 137.5 142.5 141.4 154.8 144.7 165 147.7 174 157.8 174 160.8 165 164.2 154.8 168.2 142.5 168.2 142.5 170.3 136.2"/><rect class="cls-5" x="177" y="136.2" width="9" height="37.7"/><rect class="cls-5" x="177" y="121.2" width="9" height="9.3"/><path class="cls-3" d="M230.7,163.2l-7.5-4.1c-.7,1.6-1.6,4.1-3.7,5.8h0c-1.3,1.1-3,1.8-5.3,1.8s-4.1-.7-5.5-1.8h0c-3-2.4-4.1-6.7-4.1-10.1h0c0-5,2.4-11.6,9.3-11.6s7,2.3,8.4,6.4l8.1-3.8c-.4-1-1-2.2-1.8-3.3h0c-2.5-3.7-7.2-7.4-14.5-7.4s-12,2.9-15.3,7.4h.1s-.1,0-.1,0c-2.4,3.3-3.8,7.5-3.9,12.2,0,.1,0,.2,0,.4,0,3.7.7,7,2,9.8h0c3,6.4,9.1,10.2,16.5,10.2s13.6-3.9,16.5-10.2h0c.2-.6.5-1.1.7-1.7Z"/><path class="cls-3" d="M272.8,165l-6.7-3.7c-1.1,1.7-2.4,2.9-3.8,3.7h0,0c-1.9,1.1-4,1.5-6.1,1.5s-4.5-.5-6.2-1.5h0c-2.6-1.5-4.2-4.2-4.5-8.1h27.9c0-.7,0-1.4,0-2.1h-.1.1c-.3-4.7-1.4-8.9-3.5-12.3h0c-2.9-4.5-7.8-7.4-15-7.4s-12.3,2.9-15.4,7.4h0s0,0,0,0c-2.3,3.3-3.4,7.5-3.5,12.2,0,.1,0,.2,0,.4,0,3.6.8,7,2.2,9.8h0c3.1,6.2,9.1,10.2,17.2,10.2s13.6-3.8,18.6-9.6l-1.1-.6ZM253.1,142.5h0,0c.6-.1,1.3-.2,2-.2s1.3,0,2,.2h0c3.3.7,5.7,3,6.4,7.7h-17.7c.8-3.8,3.3-6.9,7.3-7.7Z"/><g><path class="cls-3" d="M121.2,222.7c0,9,5.2,16.8,12.8,20.9v-10.7h20.9v10.7c7.5-4.1,12.8-11.9,12.8-20.9h0c0-9.1-5.3-16.9-12.8-20.9v10.7h-20.9v-10.7c-7.5,4-12.7,11.8-12.8,20.8h0ZM158.6,209c3.2,3.5,4.9,7.8,4.9,13.5h0c0,5.9-1.7,10-4.9,13.5v-27ZM134,216.3h20.9v12.8h-20.9v-12.8ZM125.3,222.6c0-6,1.8-10.1,4.9-13.5v27c-3.2-3.5-4.9-7.5-4.9-13.4h0Z"/><path class="cls-3" d="M144.4,190.2c-18,0-32.5,14.6-32.5,32.5s14.6,32.5,32.5,32.5,32.5-14.6,32.5-32.5-14.6-32.5-32.5-32.5ZM144.4,251.1c-15.6,0-28.2-12.7-28.2-28.4s12.6-28.4,28.2-28.4,28.2,12.7,28.2,28.4-12.6,28.4-28.2,28.4Z"/></g></g></g></g></svg>
