<?xml version="1.0"?>
<svg xmlns="http://www.w3.org/2000/svg" version="1.1" viewBox="0 0 1416.4 378.4" width="900px" height="241px"><defs><style> .cls-1 { fill: #d3372f; } .cls-1, .cls-2, .cls-3 { fill-rule: evenodd; } .cls-2 { fill: #403736; } .cls-3 { fill: #ffe252; } </style></defs><g><g id="Ebene_1"><path class="cls-1" d="M303.4,374.6h56c-7.9-11-11.4-16.3-15.5-25h0l-53-112.1h0c-.8-1.9-1.2-3.4-1.2-4.2,0-1.5.4-2.3,2.3-3.4h0l-59.8-.4h0c.7,1.5,1.1,2.3,1.1,3.4s0,1.9-1.5,4.5h0l-60.2,118.9h0c-4.6,8.7-6.1,11-12.1,18.2h57.6c-5.3-4.6-6.8-7.9-6.4-13.2-.4-4.2.7-8,2.6-11.8h0l2.3-4.2,87.9-.4,3.4,7.6h0c1.5,3.4,2.6,6.8,2.6,9.8-.4,4.9-1.5,8-6,12.1h0M228.4,318.1l31.5-66.7,1.1-1.9,3.8,8.7,26.5,59.9h-62.9M483.3,375l64.8-.4h0c-8.3-5.3-11-7.6-20.5-22h0l-2.6-4.2-2.7-3.8h0c-5.3-7.2-3.4-4.9-5.3-7.6-6.1-8-7.6-13.6-11.4-17.1-4.2-3.4-6.8-5.3-14-8.3,26.1-3.8,41.3-19,41.7-40.2-.4-15.9-7.9-28.4-21.6-34.8-9.1-4.2-23.1-6.5-47-6.8h-8.3l-1.9-.4h-87.9c10.6,4.5,14.8,12.1,14.8,27.6h0l-.4,89.8h0c0,15.2-3,22-13.6,27.7h65.2c-10.6-5.3-14.4-12.1-14-27.3h0v-29.9l16.7-.4h0c4.9.4,9.5,1.1,14,2.6,2.3.7,4.9,1.9,7.2,3,9.5,4.9,17.1,13.2,23.9,23.5,4.9,7.6,8.3,15.5,8.3,19.7s-1.1,5.7-5.3,9.1h0M465.9,293.2h-47.7l.4-39.4h43.2c6.1,0,14.4.7,17.4,1.5,9.9,2.3,15.5,8.7,15.9,18.2-.4,12.5-10.6,19.7-29.1,19.7h0M720.7,288.9c-3.8,3.4-4.5,5.3-4.5,11h0l-.4,70.8h0c-4.2-1.9-7.6-2.7-11.7-2.7s-6.1.4-18.2,3.4c-18.6,4.2-35.2,6.5-48.9,6.5-54.9,0-89.8-29.2-89.8-73.1.4-47.3,37.1-78.4,95.1-78.4s17.8.8,28,1.9h0l6.8.8,6.4,1.1,6.5.8h0c4.2,0,8.7.7,11,.7s5.3-.4,9.9-1.2h0l-11.4,35.6h0c-11-8.3-33.3-14.4-55.7-14.4-35.6,0-56,20.1-56,52.7s16.7,48.1,51.1,48.1,41.7-9.5,41.7-31.8h0v-7.9h-36c-8.7,0-11.4,1.1-19.3,5.3h0l6.8-20.4h0c2.3-7.6,4.2-8.7,12.5-9.1h0l76.1.4h0M736.3,375c10.2-5.3,13.6-12.1,13.6-28h0v-89h0c.4-15.1-2.7-22-12.9-28h62.1c-10.2,4.5-13.6,12.5-13.6,28h0v92.4h47.3c18.6,0,33.7-4.5,45.8-13.2h0l-8.3,26.5h0c-1.5,4.2-1.5,5.3-1.5,6,0,1.5.8,3,3,5.3h-135.6M1087,335.2c25.7,12.9,41.3,17.4,66.3,17,22.7.4,34.1-6,34.1-18.9s-3.4-11.8-10.2-14.4c-4.6-1.5-9.5-2.7-14.4-3h0l-5.7-.4-5.3-.8-5.7-1.1h0c-39.4-4.6-57.2-17.8-57.2-41.7s26.9-45.4,70.5-45.1c6.8-.4,13.6.4,20.4,1.1h0l5.7.4h0c15.5,1.9,12.5,1.5,14.8,1.9,3.4.4,5.7.7,6.1.7,2.3.4,4.2.8,5.3.8,2.3-.4,3.4-.8,6.8-2.3h0l-9.1,36.4h0c-1.5-2.6-2.7-3.4-7.2-5.3-13.3-4.6-31.5-7.9-44.3-7.9-20.5,0-32.2,5.3-32.6,15.1,0,5.7,3.8,9.1,11,11.8,2.3.4,3.8.7,9.8,1.5,3.8.4,8,1.2,11.4,1.9,23.1,3,38.3,7.2,47.7,12.1,13.3,7.2,20.8,19.3,20.5,34.5,0,29.2-28.4,48.8-70.5,48.5-9.8.4-33.7-1.1-44.7-2.3-2.3-.4-4.9-.8-6-.8-3,0-4.6.4-8,2.3h0l-9.5-42h0M1236.2,335.2c25.4,13.2,40.9,17.4,65.9,17.4s34.1-6.5,34.5-19.3c-.4-6.5-3.8-11.8-10.6-14-4.2-1.5-9.1-2.7-14.4-3.4h0l-5.7-.7-5.3-.4-5.7-1.1h0c-39-4.9-57.2-17.8-57.2-41.7.4-27.6,27.3-45.1,70.4-45.1s13.6.4,20.5,1.1h0l6,.4h0c15.5,1.9,12.1,1.9,14.4,1.9,3.8.4,5.7.7,6.5.7,2.3.4,3.8.4,4.9.8,2.3,0,3.4-.8,7.2-1.9h0l-9.1,36h0c-1.5-2.3-3-3-7.6-4.9-13.2-4.9-31.4-8.3-43.9-8.3-20.8,0-32.6,5.7-32.6,15.1s3.4,9.1,11,11.4c1.9.8,3.4,1.1,9.5,1.9,4.2.8,7.9,1.2,11.7,1.5,22.7,3.8,37.9,7.6,47.4,12.5,13.2,7.2,20.4,19.3,20.8,34.5,0,29.2-28.8,48.8-70.8,48.8s-33.7-1.5-44.7-3c-2.3,0-4.9-.4-5.7-.4-3,0-4.9.4-8.3,2.3h0l-9.1-42h0M1027.2,374.6h56.4c-8.3-11.3-11.7-16.7-15.9-25.4h0l-53-111.7h0c-.4-1.9-1.2-3-1.2-4.2s.4-2.7,2.3-3.8h-59.8c.7,1.5,1.1,2.3,1.1,3.4s-.4,1.9-1.5,4.5h0l-60.2,118.9h0c-4.6,8.7-6.1,11-12.1,18.2h57.2c-4.9-4.9-6.4-7.9-6.4-13.2s.8-8,3-12.1h0l2.3-4.2h87.9l3.8,7.6h0c1.5,3.4,1.9,6.8,2.3,10.2,0,4.6-1.5,7.6-6,11.8h0M983.6,317.8l-5.3.4h-26.5l31.8-66.7.7-1.9,4.2,8.7,26.9,59.9-31.8-.4h0M150,375c-4.2-1.9-6.8-2.6-10.2-2.6s-6.1.4-10.2.7c-1.2,0-2.3,0-3.4.4h0l-6.1.4-5.7.7-6.1.4h0c-7.2.8-14.8,1.5-22.4,1.5-52.6,0-86-27.6-86-72.4.4-47.7,36-76.1,94.7-76.5,11,.4,28.4,1.9,47.4,4.5,2.6.8,5.7,1.1,6.8,1.1,2.7,0,3.8-.4,7.6-1.5h0l-14,35.6h0c-11.4-9.9-26.9-14.4-47.7-14.4-33.3.4-54.2,19.3-54.2,51.1s18.2,47,51.1,47,37.5-4.9,57.6-15.9h0l.7,39.8h0M1397.7,192.5c10.3,0,18.6,8.3,18.6,18.6s-8.3,18.6-18.6,18.6-18.6-8.3-18.6-18.6,8.3-18.6,18.6-18.6h0M1397.7,194.6c9.2,0,16.6,7.4,16.6,16.5s-7.4,16.5-16.6,16.5-16.6-7.4-16.6-16.5,7.4-16.5,16.6-16.5h0M1389.5,221.6v-20.8h9.2c1.8,0,3.3.2,4.2.6,1,.4,1.7,1,2.3,2,.6.9.9,2,.9,3.1s-.5,2.7-1.4,3.7c-1,1-2.4,1.7-4.4,1.9.7.4,1.3.7,1.7,1,.8.7,1.6,1.7,2.3,2.8h0l3.6,5.7h-3.4l-2.7-4.3h0c-.8-1.2-1.5-2.2-2-2.9-.5-.7-1-1.1-1.4-1.4-.4-.3-.8-.5-1.3-.6-.3,0-.8,0-1.5,0h-3.2v9.2h-2.7M1392.2,209.8h5.9c1.3,0,2.2-.1,2.9-.4.7-.3,1.2-.7,1.6-1.3.4-.6.5-1.2.5-1.9,0-1-.4-1.8-1.1-2.4-.7-.6-1.8-1-3.4-1h-6.6v6.9h0"/><polyline class="cls-2" points="613.6 0 479.5 0 479.5 153 613.6 153 613.6 0"/><polyline class="cls-3" points="608.3 148.1 608.7 4.9 484.4 4.9 484.1 148.1 608.3 148.1 608.3 148.1"/><polyline class="cls-2" points="475 0 242.8 153 475 153 475 0"/><polyline class="cls-3" points="469.6 148.1 470 9.1 259.4 148.1 469.6 148.1 469.6 148.1"/><polyline class="cls-2" points="895 153 1126.8 0 895 0 895 153.4"/><polyline class="cls-1" points="899.9 4.9 900.3 143.5 1110.9 4.9 899.9 4.9 899.9 4.9"/><polyline class="cls-2" points="890.4 0 756.7 0 756.4 153 890.4 153 890.4 .4"/><polyline class="cls-1" points="885.6 147.7 885.6 4.9 761.3 4.9 761.3 148.1 885.6 147.7 885.6 147.7"/><polyline class="cls-2" points="752.2 0 618.1 0 618.1 153 751.8 153 752.2 0"/><polyline class="cls-1" points="746.9 147.7 746.9 4.9 622.7 4.9 623 147.7 746.9 147.7 746.9 147.7"/></g></g></svg>
