<?xml version="1.0"?>
<svg xmlns="http://www.w3.org/2000/svg" xmlns:xlink="http://www.w3.org/1999/xlink" version="1.1" viewBox="0 0 405.4 186.3" width="900px" height="413px"><defs><style> .cls-1 { fill: #1a191c; stroke: #1a191c; stroke-width: .2px; } .cls-2 { fill: url(#linear-gradient); } .cls-3 { fill: #c19e52; } .cls-4 { isolation: isolate; } .cls-5 { mix-blend-mode: multiply; } .cls-6 { fill: #42487a; } .cls-7 { fill: #fff; } .cls-8 { fill: #e42d30; } </style><linearGradient id="linear-gradient" x1="151.9" y1="70.3" x2="253.4" y2="70.3" gradientUnits="userSpaceOnUse"><stop offset="0" stop-color="#8b8e90"/><stop offset="0" stop-color="#95989a"/><stop offset="0" stop-color="#c2c4c5"/><stop offset=".1" stop-color="#e3e4e4"/><stop offset=".2" stop-color="#f7f7f8"/><stop offset=".2" stop-color="#fff"/><stop offset=".8" stop-color="#fff"/><stop offset=".8" stop-color="#f1f1f1"/><stop offset=".9" stop-color="#cccdce"/><stop offset="1" stop-color="#929496"/><stop offset="1" stop-color="#8b8e90"/></linearGradient></defs><g class="cls-4"><g><path class="cls-6" d="M13.9,166.9h7.7v-14.7h7v-6.4h-7.1v-6.7h7.8l1.4-6.6H13.9v34.4ZM90.2,132.5h-11.9v34.4h12.2c10.5,0,11.8-11.5,11.8-17.8s-1.4-16.6-12.2-16.6ZM89.7,160.1h-3.8v-21h3.5c2.8,0,4.5,1.8,4.5,9.6s-1.6,11.4-4.3,11.4ZM119.9,145.4c-4.3-1.1-5.3-2-5.3-4,0-3.5,6-3.8,11.3-.3l1.6-7.3c-9.6-4.4-21.3-2.1-21.3,9.2s2.3,8.3,8.5,9.8c3.6.9,5.6,1.5,5.6,4,0,4.4-6.5,4.9-13.3.9l-1.5,7.2c9.5,4.8,23.6,3,23.6-10.1s-4.3-8.3-9.2-9.5ZM65.8,141.4c0-6.7,1.4-9,1.4-9h-9.1v34.4h16.4c0-.3,1.3-6.3,1.4-6.7h-10.1v-18.7ZM195.4,141.4c0-6.7,1.4-9,1.4-9h-9.1v34.4h16.4c0-.3,1.3-6.3,1.4-6.7h-10.1v-18.7ZM383.6,132.5v11.1c0,2-.1,5.6.1,7.8h-.1c-.8-2.5-1.9-5.3-2.7-7l-5.6-11.8h-7.9v34.4h7.2v-11.1c0-4-.1-7.3-.3-8.8h.1c.6,2.1,1.7,5,2.6,6.9,0,0,5.4,12.7,5.5,12.9h8.4v-25.4c0-6.7,1.4-9,1.4-9h-8.6ZM42.6,152.2h7.8v-6.4h-7.8v-6.7h8.7l1.4-6.6h-17.8v34.4h16.9l1.4-6.7h-10.7v-7.9ZM351.8,152.2h7.8v-6.4h-7.8v-6.7h8.7l1.4-6.6h-17.8v34.4h16.9l1.4-6.7h-10.7v-7.9ZM146.9,138.5c1.8,0,3.5.6,5.1,1.7l1.5-7.2c-1.8-.7-4.1-1.2-6.5-1.2-11.3,0-15.2,8.8-15.2,18.5s4.6,17.1,14.1,17.1,5.1-.5,6.9-1.2v-7.7c-1.8,1.5-3.5,2.2-5.9,2.2-4.2,0-6.3-2.5-6.3-10.7s1.6-11.5,6.3-11.5ZM303.5,138.5c1.8,0,3.5.6,5.1,1.7l1.5-7.2c-1.8-.7-4.1-1.2-6.5-1.2-11.3,0-15.2,8.8-15.2,18.5s4.6,17.1,14.1,17.1,5.1-.5,6.9-1.2v-7.7c-1.8,1.5-3.5,2.2-5.9,2.2-4.2,0-6.3-2.5-6.3-10.7s1.6-11.5,6.3-11.5ZM276.4,145.4c-4.3-1.1-5.3-2-5.3-4,0-3.5,6-3.8,11.3-.3l1.5-7.3c-9.6-4.4-21.3-2.1-21.3,9.2s2.3,8.3,8.5,9.8c3.6.9,5.6,1.5,5.6,4,0,4.4-6.5,4.9-13.3.9l-1.5,7.2c9.5,4.8,23.6,3,23.6-10.1s-4.3-8.3-9.2-9.5ZM250.3,145.4c-4.3-1.1-5.3-2-5.3-4,0-3.5,6-3.8,11.3-.3l1.5-7.3c-9.6-4.4-21.3-2.1-21.3,9.2s2.3,8.3,8.5,9.8c3.6.9,5.6,1.5,5.6,4,0,4.4-6.5,4.9-13.3.9l-1.5,7.2c9.5,4.8,23.6,3,23.6-10.1s-4.3-8.3-9.2-9.5ZM172.7,145.4h-7.6v-12.9h-7.6v34.4h7.6v-14.8h7.6v14.8h7.6v-25.4c0-6.7,1.4-9,1.4-9h-9v12.9ZM329.2,145.4h-7.6v-12.9h-7.6v34.4h7.6v-14.8h7.6v14.8h7.6v-25.4c0-6.7,1.4-9,1.4-9h-9v12.9ZM219,131.9c-12.6,0-13.8,12.6-13.8,16.5,0,12.7,4.6,19.1,13.8,19.1s13.8-6.4,13.8-19.1-1.2-16.5-13.8-16.5ZM219,161.1c-3.8,0-5.2-3.1-5.2-11.6s1.3-11.2,5.2-11.2,5.2,3,5.2,11.2-1.4,11.6-5.2,11.6ZM228.9,123.1h-7.9v5.8h6.7l1.2-5.8ZM217.9,123.1h-7.9v5.8h6.7l1.2-5.8Z"/><polygon class="cls-3" points="405.4 182.7 202.7 186.3 0 182.7 0 181.5 405.4 181.5 405.4 182.7"/><polygon class="cls-3" points="405.4 113.2 260.8 110.6 260.8 114.4 405.4 114.4 405.4 113.2"/><polygon class="cls-3" points="0 113.2 0 114.4 144.6 114.4 144.6 110.6 0 113.2"/><path class="cls-8" d="M250.8,112.4h-37.7v-.4s0-8.9,0-8.9h0c0-.1,0-.2,0-.2,0,0,1.2-1.4,1.6-1.9,0-1.5,0-13.7,0-13.7,0-6.7-5.4-12.2-12.1-12.2-6.7,0-12.1,5.5-12.1,12.2,0,0,0,12.2,0,13.7.4.5,1.6,1.9,1.6,1.9h0v9.5h-37.7v-9.2h0c0-.1,0-.2,0-.2l1.6-1.8v-59.1l-1.6-1.5h-.1v-3.1c-.2-.2-.8-.9-2.9-3.4l-.2-.3.2-.2.4-.4c.2-.2.4-.4.6-.7,1.4-1.6,3.8-4.3,8.3-4.3h29.7v24.1h3.1v-11.5h7.3v11.5h3.1v-11.5h7.3v11.5h3.2v-24.1h29.6c4.5,0,7,2.8,8.5,4.4l.2.2.8.8.2.2-.2.3c-1.6,1.8-2.7,3.1-2.9,3.4v3h-.1c0,.1-1.6,1.6-1.6,1.6v59.1l1.6,1.9h0v9.5h0Z"/><g class="cls-5"><path class="cls-2" d="M252.7,33c-1.4-1.6-3.8-4.4-8.4-4.4h-29.2s0,24,0,24h-3.9v-11.5h-6.6v11.5h-3.9v-11.5h-6.6v11.5h-3.8v-24h-29.4c-4.3,0-6.6,2.6-8,4.1-.2.3-.4.5-.6.7l-.4.4c.8,1,2.9,3.3,3,3.6v2.9l1.7,1.6v59.4l-1.7,2v8.9h36.9v-8.9s-1.4-1.8-1.7-2.1c0-.5,0-13.3,0-13.3.5-6.9,5.6-12.5,12.5-12.5,6.9,0,12.1,5.7,12.5,12.5,0,0,0,13,0,13.5-.3.3-1.7,2-1.7,2v8.9h36.9v-8.9l-1.6-1.9v-59.4s1.6-1.6,1.6-1.6c0,0,0-2.5,0-2.8.3-.4,2.2-2.7,3-3.6l-.8-.8Z"/></g><path class="cls-1" d="M192.7,114.4v-11.5l-1.7-2v-13.7c0-6.1,5.1-11.6,11.7-11.7,6.4,0,11.6,5.5,11.6,11.7s0,11.6,0,13.7c-.5.6-1.5,1.7-1.5,1.7l-.2.2v11.5h38.6v-11.5l-.2-.2-1.5-1.7v-58.7l1.4-1.3.3-.2v-3c.5-.6,1.9-2.2,3.2-3.7l.2-.2v-5.5c-2.1-.6-15.3-5.6-16.7-24.7,0-.9,0-1.7,0-2.6V0h-8.9v14.1h-5.8V0h-8.9v44.8h-2.3v-4.6l-1.7-4.6h-5.9l-.7,4.6v4.5h-2.2v-4.5l-.7-4.6h-5.9l-1.7,4.6v4.6h-2.2V0h-8.9v14.1h-5.8V0h-8.9v.8c0,1.5,0,2.8-.2,4.1-2.1,17.7-14.4,22.7-16.6,23.2v5.5l.2.2c1.3,1.5,2.7,3.1,3.2,3.7v3l.3.2,1.4,1.3v58.7l-1.5,1.7-.2.2v11.5h38.5ZM215.1,32h14.2v4.2h-14.2v-4.2ZM153.2,35.4c-.5-.6-1-1.2-1.4-1.6h0s.4-.4.4-.4c.2-.2.4-.4.6-.7,1.4-1.5,3.7-4.1,8-4.1h29.4v2.5h-29.4c-3.9,0-6.1,2.4-7.3,3.9-.1.2-.3.3-.4.4ZM190.3,32v4.2h-14.2v-4.2h14.2ZM175.4,36.2h-13.2c-.3,0-.7,0-1,0v-4.2c.2,0,.3,0,.5,0h13.7v4.2ZM154.9,40.2v-2.9c0,0-.5-.6-1-1.2.9-1.3,3-4.1,6.6-4.1v4.3c-2.7.5-4.3,2.3-5.3,3.5-.1.2-.3.3-.4.4ZM154.9,112.1v-8.9l1.4-1.6h5.7v10.5h-7.1ZM162.7,112.1v-10.5h6.7v10.5s-6.7,0-6.7,0ZM170.1,112.1v-10.5h6.7v10.5h-6.7ZM177.6,112.1v-10.5h6.5v10.5h-6.5ZM190.2,95.2v5.8h-5.4v-5.8h5.4ZM184.8,94.5v-6.9h5.4c0,0,0,6.9,0,6.9h-5.4ZM191.8,103.2v8.9h-7.1v-10.5h5.8l1.3,1.6ZM190.2,86.7c0,0,0,.3,0,.3h-5.4c0-2.6.6-5,1.6-7.2l4.9,2.3c-.6,1.4-1,2.9-1.1,4.5ZM191.5,81.6l-4.9-2.3c1.1-2.2,2.7-4.1,4.5-5.7l3.3,4.2c-1.2,1-2.2,2.3-3,3.8ZM195.1,77.4l-3.3-4.2c1.9-1.5,4.1-2.6,6.6-3.2l1.4,5.2c-1.7.4-3.3,1.2-4.7,2.2ZM202.7,74.9c-1,0-1.8.1-2.3.2l-2.9-10.6h10.3l-2.9,10.6c-.6,0-1.2-.2-2.3-.2ZM205.6,75.2l1.4-5.2c2.5.6,4.6,1.7,6.6,3.2l-3.3,4.2c-1.4-1-2.9-1.8-4.6-2.2ZM210.8,77.8l3.3-4.2c1.9,1.5,3.4,3.5,4.5,5.7l-4.9,2.3c-.8-1.5-1.7-2.7-3-3.8ZM214.1,82.2l4.9-2.3c1,2.2,1.6,4.5,1.6,7.1h-5.4c0-1.6-.4-3.3-1.1-4.8ZM215.2,94.5v-6.8h5.4c0,0,0,6.8,0,6.8h-5.4ZM220.6,95.2v5.8h-5.4v-5.8h5.4ZM213.5,112.1v-8.9l1.3-1.6h5.8v10.5h-7.1ZM221.2,112.1v-10.5s6.5,0,6.5,0v10.5s-6.5,0-6.5,0ZM228.4,112.1v-10.5h6.7v10.5h-6.7ZM235.9,112.1v-10.5h6.7v10.5s-6.7,0-6.7,0ZM250.4,103.2v8.9h-7.1v-10.5h5.7l1.4,1.6ZM250.4,37.4c0,.3,0,2.8,0,2.8l-1.7,1.6v59.1h-27.5v-13.7c0-8.6-6-15.8-14-17.9l1.5-5.6h-12.2l1.5,5.6c-8.1,2-14.1,9.3-14.1,17.9v13.7h-27.5v-59.1l-1-1c.9-1.3,3.2-3.9,7.4-3.9h27.3v15.6h3.8v-11.5h6.6v11.5h3.9v-11.5h6.6v11.5h3.9v-15.6h27.3c4.2,0,6.5,2.7,7.4,4l.7-.6c-.1-.1-.3-.3-.4-.5-.4-.4-.9-1-1.5-1.5-1.1-.9-2.4-1.7-3.7-1.9v-4.3c3.3,0,5.4,2.4,6.6,4.1-.5.6-.9,1.1-1,1.2ZM230,36.2v-4.2h14.2s0,4.2,0,4.2c-.3,0-.8,0-.9,0h-13.3ZM252.1,35.4c-.1-.1-.3-.3-.4-.5-.4-.5-.9-1.1-1.6-1.6-1.3-1.1-3.1-2.2-5.7-2.2h-29.3v-2.5h29.2c4.5,0,7,2.9,8.4,4.4l.8.8c-.3.4-.9,1-1.4,1.6Z"/><g><g><g><g><path class="cls-7" d="M163.6,53.1c.9,3.2.9,3.9,2.4,5.8,1.3,1.7,4.7,3.8,6.5,5.1,0,0-.1-6.8-3.6-10.2-2-2-4-3.3-6.4-5.1l1,4.3Z"/><path class="cls-7" d="M158.9,59.5c3.3,0,3.9-.3,6.3.5,2,.7,5.1,3.4,6.8,4.7,0,0-6.5,1.9-10.8-.3-2.5-1.3-4.4-2.8-6.7-4.6l4.4-.3Z"/><path class="cls-7" d="M172.1,58.7c.7,3.4.7,4.1,2.1,6.2,1.3,1.8,4.7,3.9,6.5,5.2,0,0,.3-7.5-3-10.9-2-2-4-3.3-6.3-5.1l.8,4.7Z"/><path class="cls-7" d="M166.9,65.8c3.5-.3,4.2-.6,6.6.2,2.1.7,5.1,3.3,6.8,4.6,0,0-7,2.6-11.3.4-2.5-1.3-4.4-2.8-6.8-4.5l4.7-.7Z"/><path class="cls-7" d="M180.5,64.2c.6,3.7.4,4.4,1.8,6.6,1.2,1.9,4.7,3.9,6.5,5.2,0,0,.8-8.1-2.5-11.6-1.9-2.1-3.9-3.4-6.3-5.1l.5,5Z"/><path class="cls-7" d="M174.6,72.1c3.7-.6,4.4-.9,6.9-.2,2.1.6,5.1,3.3,6.9,4.6,1.3-.5-7.8,3-11.9,1.1-2.6-1.2-4.4-2.8-6.8-4.5l4.9-1Z"/><path class="cls-7" d="M156.1,48.5c1.1,2.8,1.1,3.3,2.6,5.1,1.3,1.5,4.5,3.6,6.1,4.8,0,0-.6-5.7-3.9-8.8-1.9-1.8-3.8-3.1-6-4.7l1.2,3.7Z"/><path class="cls-7" d="M152.3,53.6c2.9.2,3.5,0,5.6.9,1.9.8,4.7,3.2,6.4,4.4,0,0-5.7,1.1-9.6-1.1-2.3-1.3-4.1-2.7-6.3-4.3h3.9Z"/></g><path class="cls-7" d="M157.2,53.2c-.4-2.8-1.4-4.4-3.8-5.9-3.7-2.3-6.9-2-6.9-2,0,0,.7,3.1,4,6,2.1,1.8,4,2.3,6.7,1.9h0Z"/></g><g><g><path class="cls-7" d="M241.8,53.1c-.9,3.2-.9,3.8-2.4,5.8-1.3,1.7-4.7,3.8-6.5,5.1,0,0,.1-6.8,3.6-10.2,2-2,4-3.3,6.4-5.1l-1,4.3Z"/><path class="cls-7" d="M246.5,59.5c-3.3,0-3.9-.3-6.3.5-2,.7-5.1,3.4-6.8,4.7,0,0,6.5,1.9,10.8-.3,2.5-1.3,4.4-2.8,6.7-4.6l-4.4-.3Z"/><path class="cls-7" d="M233.3,58.7c-.7,3.4-.7,4.1-2.1,6.2-1.3,1.8-4.7,3.9-6.5,5.2,0,0-.3-7.5,3-10.9,2-2,4-3.3,6.4-5.1l-.8,4.7Z"/><path class="cls-7" d="M238.5,65.8c-3.5-.3-4.1-.6-6.6.2-2.1.7-5.1,3.3-6.9,4.6,0,0,7,2.6,11.3.4,2.5-1.3,4.4-2.8,6.8-4.5l-4.7-.7Z"/><path class="cls-7" d="M224.9,64.2c-.6,3.7-.4,4.4-1.9,6.6-1.2,1.9-4.7,3.9-6.5,5.2,0,0-.8-8.1,2.5-11.6,1.9-2.1,3.9-3.4,6.3-5.1l-.5,5Z"/><path class="cls-7" d="M230.8,72.1c-3.7-.6-4.4-.9-6.9-.2-2.1.6-5.1,3.3-6.9,4.6-1.3-.5,7.8,3,11.9,1.1,2.6-1.2,4.4-2.7,6.8-4.5l-4.9-1Z"/><path class="cls-7" d="M249.3,48.5c-1.1,2.8-1.1,3.3-2.6,5.1-1.3,1.5-4.5,3.6-6.1,4.8,0,0,.6-5.7,3.9-8.8,1.9-1.8,3.8-3.1,6-4.7l-1.2,3.7Z"/><path class="cls-7" d="M253.1,53.6c-2.9.2-3.5,0-5.6.9-1.9.8-4.7,3.2-6.4,4.4,0,0,5.7,1.1,9.6-1.1,2.3-1.3,4.1-2.7,6.3-4.3h-3.9Z"/></g><path class="cls-7" d="M248.2,53.2c.4-2.8,1.4-4.4,3.8-5.9,3.7-2.3,6.9-2,6.9-2,0,0-.7,3.1-4,6-2.1,1.8-4,2.3-6.7,1.9h0Z"/></g></g><g><path class="cls-3" d="M270.4,44.5l-.7-.9-12.8,9.4h-3.3c.6-.3,1.1-.7,1.7-1.1,3-2.6,3.9-5.5,4.1-6.2l7.7-5.6-.7-.9-7.6,5.6c0,0-.2,0-.3,0-1,0-3.8.2-6.9,2.1-.6.3-1.1.7-1.5,1.1l1-2.9,12.8-9.4-.7-.9-11.5,8.5h0s-1.5,1.1-1.5,1.1c-2.2,1.6-4.1,2.9-6.1,4.8-.3.3-.7.7-.9,1.1l.7-2.9-1.3,1c-2.4,1.7-4.4,3.1-6.5,5.1-.6.6-1.1,1.3-1.5,2l.5-2.8-1.2.9c-2.4,1.7-4.4,3.1-6.4,5.2-.6.6-1,1.3-1.4,2l.3-2.8-1.1.8c-2.4,1.7-4.4,3-6.4,5.2-2.4,2.7-2.7,7.3-2.8,10,0,.7,0,1.3,0,1.7-7.5,5.7-11.8,15.1-13.3,24.4h0c-1.5-9.3-5.8-18.7-13.3-24.4,0-.4,0-1,0-1.7,0-2.7-.3-7.3-2.8-10-2-2.2-4.1-3.5-6.4-5.2l-1.1-.8.3,2.8c-.4-.7-.8-1.4-1.4-2-2-2.1-4.1-3.4-6.4-5.2l-1.2-.9.5,2.8c-.4-.7-.9-1.4-1.5-2-2.1-2-4.1-3.4-6.5-5.1l-1.3-1,.7,2.8c-.3-.4-.6-.7-.9-1-2-1.9-3.9-3.1-6.1-4.8l-1.6-1.1h0s-11.5-8.5-11.5-8.5l-.7.9,12.8,9.4,1,3c-.4-.4-1-.8-1.5-1.1-3.1-1.9-5.9-2.1-6.9-2.1s-.2,0-.2,0l-7.7-5.6-.7.9,7.6,5.6c.2.6,1.1,3.5,4.2,6.2.6.5,1.1.9,1.7,1.2h-3.3c0,0-12.8-9.4-12.8-9.4l-.7.9,12.9,9.5h.1c2.2,1.7,4,3.2,6.4,4.5.4.2.9.4,1.4.6l-3,.2,1.4,1c2.4,1.7,4.3,3.3,6.8,4.6.7.4,1.4.6,2.2.8l-2.6.4,1.2.9c2.4,1.7,4.2,3.3,6.9,4.6.7.3,1.4.6,2.2.7l-2.6.5,1.1.8c2.4,1.7,4.2,3.3,6.9,4.6,1,.5,2.2.6,3.4.6,2,0,4.3-.4,6-.9.9-.2,1.6-.4,2.1-.6.2,0,.3,0,.4-.1h0s.1,0,.1,0c7,5.4,10.4,13.4,12,20.1l-.5-.6c-1.4-1.4-3.1-2.7-5.1-3.8-2.2-1.1-5.7-2.7-10-2.7s-4.7.5-7.1,1.4c-3.1,1.2-5.2,3.2-6.5,6,4.9-2.6,9.3-3.9,13.1-3.9s6.3,1.1,8.6,3.3c4.1,3.6,6.1,9.4,6.2,17.5h6.8c.1-8.1,2.2-13.8,6.3-17.5,2.2-2.2,5.1-3.3,8.6-3.3s8.1,1.3,13.1,3.9c-1.3-2.8-3.4-4.7-6.5-6-2.3-.9-4.7-1.4-7-1.4-4.2,0-7.7,1.5-10,2.7-2,1.2-3.7,2.4-5.2,3.9v.2c1.5-6.6,4.9-14.4,11.8-19.8h0s0,0,0,0c1.3.4,5.2,1.6,8.6,1.6,1.2,0,2.4-.2,3.4-.6,2.7-1.3,4.5-2.8,6.9-4.6l1.1-.8-2.6-.5c.8-.1,1.5-.4,2.2-.7,2.6-1.3,4.5-2.9,6.9-4.6l1.2-.9-2.6-.4c.8-.2,1.5-.4,2.2-.8,2.6-1.3,4.5-2.9,6.8-4.6l1.4-1-3-.2c.5-.2.9-.4,1.3-.6,2.4-1.3,4.2-2.7,6.4-4.4l1.6-1.1h0l11.5-8.4ZM185.8,64.7c2,2.2,2.5,6.6,2.4,9.1,0,.3,0,.7,0,.9-1.9-1.3-4.5-3-5.4-4.4-.7-1.1-.9-1.7-1.2-2.5-.2-.9-.3-2-.6-3.8l-.4-3.6c1.9,1.4,3.6,2.5,5.1,4.2ZM177.2,59.6c2.3,2.4,2.8,7.1,2.9,9.3-1.9-1.3-4.4-3-5.4-4.3-1.4-2-1.3-2.5-2-6l-.5-3.2c1.9,1.3,3.5,2.5,5.1,4.1ZM168.5,54.3c1.6,1.6,2.4,4,2.9,6.1.2.9.3,1.8.4,2.5-1.9-1.3-4.3-3-5.3-4.2-1.5-1.9-1.4-2.4-2.3-5.6l-.6-2.7c1.8,1.3,3.4,2.5,5,4ZM160.5,50c1.5,1.4,2.5,3.6,3,5.3.2.6.3,1.2.4,1.7-1.7-1.2-3.9-2.7-4.8-3.8-1.4-1.7-1.4-2.1-2.5-4.9l-.6-1.9c1.6,1.2,3,2.2,4.4,3.6ZM147.8,47c-.2-.4-.4-.7-.5-1,1.1,0,3.3.4,5.7,1.9,2.1,1.3,3,2.6,3.4,4.8-.4,0-.7,0-1.1,0-1.7,0-3-.5-4.6-1.9-1.6-1.4-2.5-2.8-3.1-3.9ZM150.3,54.2h2c3,.2,3.3,0,5.4.9,1.3.5,3.4,2.2,5.1,3.4-.5,0-1.1,0-1.8,0-1.8,0-4.1-.3-5.9-1.3-1.7-1-3.1-2-4.7-3.2ZM156.2,60.3l2.8-.2c1.3,0,2.2,0,2.9,0,1.1,0,1.7.1,3.1.6,1.5.5,3.8,2.4,5.6,3.8-.1,0-.3,0-.4,0-1,.2-2.4.4-3.8.4-1.7,0-3.5-.3-4.9-1-2-1-3.5-2.2-5.3-3.5ZM163.7,66.9l3.2-.5c1.8-.2,2.9-.3,3.8-.3.8,0,1.4.1,2.6.5,1.6.5,3.9,2.4,5.7,3.8-.3,0-.6.2-1,.3-1.3.3-3,.6-4.7.6-1.4,0-2.9-.2-4-.8-2-1-3.6-2.2-5.5-3.6ZM179.7,77.6c-1.1,0-2.2-.2-2.9-.5-2.1-1-3.7-2.2-5.6-3.6l3.5-.7c2.2-.3,3.4-.6,4.3-.6.7,0,1.3,0,2.2.4,1.6.4,3.9,2.4,5.7,3.8-1.7.5-4.7,1.3-7.4,1.3ZM252.3,47.9c2.4-1.5,4.6-1.9,5.7-1.9-.4,1.1-1.4,3-3.5,4.9-1.6,1.4-2.9,1.9-4.6,1.9-.3,0-.7,0-1.1,0,.4-2.3,1.3-3.5,3.4-4.8ZM244.9,50c1.4-1.4,2.8-2.4,4.4-3.6l-.6,1.9h0c-1.1,2.8-1,3.2-2.5,4.9-.9,1.1-3.1,2.6-4.8,3.8.4-1.9,1.4-5.1,3.5-7ZM236.9,54.3c1.6-1.6,3.2-2.7,5-4l-.6,2.7c-.9,3.3-.8,3.7-2.3,5.6-1,1.3-3.5,3-5.3,4.2.2-2.1,1-6.3,3.3-8.5ZM228.2,59.6c1.6-1.6,3.2-2.8,5.1-4.2l-.5,3.2c-.7,3.5-.6,4-2,6-.9,1.4-3.5,3-5.4,4.3,0-2.2.5-7,2.9-9.3ZM219.6,64.7c1.6-1.7,3.2-2.9,5.1-4.2l-.4,3.6c-.3,1.8-.4,3-.6,3.8-.2.9-.5,1.5-1.2,2.5-.9,1.4-3.5,3.1-5.4,4.4,0-.3,0-.6,0-.9,0-2.6.4-7,2.4-9.1ZM228.6,77.1c-.7.4-1.8.5-2.9.5-1.9,0-4-.4-5.7-.8-.6-.2-1.2-.3-1.7-.5,1.8-1.4,4.1-3.3,5.7-3.8,1-.3,1.6-.4,2.2-.4,1,0,2.1.2,4.3.6l3.5.7c-1.9,1.4-3.5,2.6-5.6,3.6ZM236.2,70.4c-1.2.6-2.6.8-4,.8-1.7,0-3.4-.3-4.7-.6-.4,0-.7-.2-1-.3,1.8-1.4,4.2-3.3,5.7-3.8,1.1-.4,1.8-.5,2.6-.5.9,0,1.9.2,3.8.3l3.2.5c-1.8,1.4-3.4,2.6-5.5,3.6ZM243.9,63.8c-1.4.8-3.2,1-4.9,1-1.4,0-2.8-.2-3.8-.4-.1,0-.3,0-.4,0,1.8-1.4,4.1-3.3,5.6-3.8,1.4-.5,2-.6,3.1-.6.7,0,1.6,0,3,0l2.8.2c-1.8,1.3-3.4,2.5-5.3,3.5ZM250.3,57.4c-1.8,1-4.1,1.3-5.9,1.3-.7,0-1.3,0-1.8,0,1.6-1.3,3.7-2.9,5.1-3.4,2.1-.9,2.4-.7,5.4-.9h2c-1.6,1.1-3,2.2-4.7,3.1Z"/><path class="cls-7" d="M204.3,113h-3.2c.4-6.7,2-14.6,10-19.1,3.2-1.8,6.2-2.6,9.3-2.6s2,0,3,.3c3.2.5,5.4,1.5,7.3,3.4-3.2-1.5-6.6-2.3-9.8-2.3s-6.8,1-9.2,3c-5.1,4-7.4,9.2-7.5,17.3h0Z"/></g></g><path class="cls-7" d="M201.7,101.7c-1.5-3.1-3.8-5.9-7.5-7.9-3.2-1.8-6.2-2.6-9.3-2.6s-2,0-3,.3c-3.2.5-5.4,1.5-7.3,3.4,3.2-1.5,6.6-2.3,9.8-2.3s6.8,1,9.2,3c3.5,2.7,5.6,6.1,6.7,10.4.4-1.5.9-3,1.5-4.2Z"/></g></g></svg>
