<?xml version="1.0"?>
<svg xmlns="http://www.w3.org/2000/svg" version="1.1" viewBox="0 0 283.8 66.8" width="900px" height="212px"><defs><style> .cls-1 { fill: #8064a9; } .cls-2 { fill: #1d1d1b; } .cls-3 { fill: #077; } .cls-4 { fill: #e63329; } .cls-5 { fill: #512178; } .cls-6 { fill: #aa0a2f; } .cls-7 { fill: #00a6aa; } </style></defs><g><g id="P_Process_Black"><g><path class="cls-2" d="M10,16.2v16.8h.1c2.3-3.1,5.1-4.5,9-4.5,7.2,0,10.6,4.7,10.6,11.9v17.3h-10v-14.5c0-3.3-.5-6.7-4.5-6.7s-5.2,3.4-5.2,6.7v14.5H0V16.2h10Z"/><path class="cls-2" d="M63.9,45.2h-21.1c0,4.1,2.2,6.3,6.3,6.3s3.7-.7,4.8-2.6h9.7c-1.6,6.7-7.9,9.7-14.4,9.7-9.4,0-16.4-5.3-16.4-15.1s6.4-15.1,15.7-15.1,15.5,6.1,15.5,15.7v1.1ZM54.5,39.4c-.5-2.7-3-4.5-5.7-4.5s-5.3,1.5-6,4.5h11.6Z"/><path class="cls-2" d="M76.8,57.6h-10V16.2h10v41.5Z"/><path class="cls-2" d="M95.9,43.9l6.7-14.5h11.2l-14.8,28.3h-6.4l-14.8-28.3h11.2l6.8,14.5Z"/><path class="cls-2" d="M142.5,45.2h-21.1c0,4.1,2.2,6.3,6.3,6.3s3.7-.7,4.8-2.6h9.7c-1.6,6.7-7.9,9.7-14.4,9.7-9.4,0-16.4-5.3-16.4-15.1s6.5-15.1,15.7-15.1,15.5,6.1,15.5,15.7v1.1ZM133.2,39.4c-.5-2.7-3-4.5-5.7-4.5s-5.4,1.5-6,4.5h11.6Z"/><path class="cls-2" d="M157.3,57.6h-10v-20h-3.3v-8.3h3.3v-8.5h10v8.5h5.7v8.3h-5.7v20Z"/><path class="cls-2" d="M175.5,20.4c0,3.1-2.5,5.6-5.6,5.6s-5.6-2.5-5.6-5.6,2.5-5.6,5.6-5.6,5.6,2.5,5.6,5.6ZM174.9,57.6h-10v-28.3h10v28.3Z"/><path class="cls-2" d="M210.8,57.6h-10v-3.1h-.1c-1.8,2.8-5.2,4.1-8.5,4.1-8.4,0-14.3-7-14.3-15.1s5.8-15.1,14.2-15.1,6.7,1.2,8.8,3.7v-2.8h10v28.3ZM188.2,43.5c0,3.6,2.4,6.3,6.5,6.3s6.5-2.8,6.5-6.3-2.4-6.4-6.5-6.4-6.5,2.9-6.5,6.4Z"/></g></g><g id="P_2577"><polygon class="cls-1" points="224.1 47.3 243.2 2.8 248.4 15 233.7 49 224.1 47.3"/></g><g id="P_268"><polygon class="cls-5" points="249.6 39.1 243.8 25.7 233.7 49 246.7 45.7 249.6 39.1"/><polygon class="cls-5" points="243.2 2.8 256.2 0 261.5 12 248.4 15 243.2 2.8"/></g><g id="P_326"><polygon class="cls-7" points="260.8 65 219.7 57.6 224.1 47.3 255.5 52.7 260.8 65"/></g><g id="P_328"><polygon class="cls-3" points="246.7 45.7 233.7 49 255.5 52.7 252.9 46.7 246.7 45.7"/></g><g id="P_032"><polygon class="cls-4" points="243.8 25.7 248.4 15 270.9 66.8 260.8 65 243.8 25.7"/></g><g id="P_194"><polygon class="cls-6" points="248.4 15 261.5 12 283.8 63.2 270.9 66.8 248.4 15"/></g></g></svg>
