<?xml version="1.0"?>
<svg xmlns="http://www.w3.org/2000/svg" version="1.1" viewBox="0 0 279.5 121.9" width="900px" height="393px"><defs><style> .cls-1 { fill: #455438; } .cls-2 { fill: #c6ae70; } </style></defs><g><g id="Ebene_1"><g><path class="cls-2" d="M226.2,17.7c2.8-1.4,4.5-4.2,4.5-7.7C230.8,3.9,226.1,0,219.1,0s-11.7,3.9-11.7,9.9,1.6,6.5,4.3,7.9c-3.3,1.4-5.6,4.9-5.6,9.2,0,6.8,5,11,13,11s13-4.3,13-11-2.5-7.9-5.9-9.3h0ZM184.4,11.4l7.4-3.4v29.3h6.6V.7h-5.8l-8.2,4.1v6.6h0ZM252.5,13.6c-2.2,0-4.1.7-5.4,1.7,1.1-1.5,2.2-3.1,3.6-5.2l6.3-9.5h-7.5l-7.9,12.4c-2.9,4.7-3.8,8.2-3.8,12.2,0,7.9,5.4,12.8,13.1,12.8s13.1-5.3,13.1-12.5-4.8-11.9-11.5-11.9h0ZM265.5,4.8v6.4l7.4-3.2v29.3h6.6V.7h-5.8l-8.2,4.1h0ZM219.1,5.9c2.9,0,5,1.8,5,4.7s-2.1,4.5-5,4.5-5-1.7-5-4.5,2-4.7,5-4.7h0ZM250.8,32c-3.6,0-6.1-2.6-6.1-6.4s2.5-6.3,6.1-6.3,6.5,2.6,6.5,6.3-2.7,6.4-6.5,6.4h0ZM219.1,32.2c-3.6,0-6.1-2.3-6.1-5.6s2.5-5.8,6.1-5.8,6.1,2.2,6.1,5.8-2.6,5.6-6.1,5.6h0Z"/><path class="cls-1" d="M25.8,119.8V.7H0v119.1h25.8ZM77.1,119.8V.7h-25.8v119.1h25.8ZM151.3,34.2c-10.9,0-19.1,2.9-25.3,9.1V.7h-25.8v72.3c0,30.2,17.6,48.9,46.2,48.9s46.4-18.9,46.4-43.9-17.1-43.7-41.5-43.7h0ZM146.7,99.3c-12.3,0-21-8.8-21-21.4s8.7-21.4,21-21.4,20.9,8.8,20.9,21.4-8.6,21.4-20.9,21.4h0Z"/></g></g></g></svg>
