<?xml version="1.0"?>
<svg xmlns="http://www.w3.org/2000/svg" version="1.1" viewBox="0 0 533.7 119.6" width="900px" height="202px"><g><g id="Logo"><path d="M13.8,1.1v59.5h29v3s-42.8,0-42.8,0V1.1h13.8ZM319.5,63.5h-16.4l-20.5-30.3h-6.3v30.3h-13.8V1.1h22.8c22.9,0,27.8,9.2,27.8,16.3s-9.7,15.9-26.2,15.9c3,2.8,7.4,4,13.2,4l19.2,26.3ZM299.5,17.3c0-5.7-2.5-13.3-16.2-13.3h-6.9v26.2s2.4.3,6.9.3c16.7,0,16.2-12.5,16.2-13.2ZM520,1.1v29.2h-30.6V1.1h-13.8v62.4h13.8v-30.3h30.6v30.3h13.8V1.1h-13.8ZM90.1,42.2h-26.4l-7.8,21.4h-4.1L75.2,1.1h13.5l23.5,62.4h-14.6l-7.6-21.4ZM64.7,39.2h24.4l-12-34-12.4,34ZM365.9,42.2h-26.4l-7.8,21.4h-4.1L351.1,1.1h13.5l23.5,62.4h-14.6l-7.6-21.4ZM340.5,39.2h24.4l-12-34-12.4,34ZM242.4,33.2v-3h-26.9s0-26.2,0-26.2h29.8V1.1h-43.6v62.4h44.2v-3h-30.4v-27.4h26.9ZM60.2,0C57.2,0,54.7,2.5,54.7,5.5s2.5,5.5,5.5,5.5,5.5-2.5,5.5-5.5S63.3,0,60.2,0ZM103.7,0C100.7,0,98.2,2.5,98.2,5.5s2.5,5.5,5.5,5.5,5.5-2.5,5.5-5.5S106.8,0,103.7,0ZM126.9,63.5h23.5c22.6,0,36.2-14.4,36.2-32.5S173.4,1.1,145.9,1.1h-19v62.4ZM140.6,60.6V4h4.6c17.2,0,26.5,8.2,26.5,27.5s-8.4,29-22.1,29h-9ZM457.8,15.8C454.3,8.6,445.3,0,429.4,0s-34,12.1-34,32.9,16.1,31.6,34.4,31.6,26.7-9.3,30-17.1l-13.6-3c-.7,8.2-6.2,17.2-16.5,17.2s-19.4-8.9-19.4-30.3,8.6-28.4,19-28.4,14.4,9.4,15.3,17.5l13.1-4.5ZM157.5,114.5l3-1.4c.5,2.1,2,3.8,4.8,3.8s4-1.1,4-3-2.2-2.9-4.8-3.7c-3-1-6.5-2.1-6.5-6.1s2.8-5.7,6.7-5.7,6,1.5,6.9,4.5l-2.7,1.3c-.5-1.9-2-3.1-4.2-3.1s-3.6,1-3.6,2.8,2.3,2.8,4.9,3.7c3.5,1.1,6.4,2.6,6.4,6.2s-3.1,5.8-7.3,5.8-6.8-2.2-7.7-5ZM200,98.8l-4.6,15.8h0l-4.7-15.8h-2.6l-4.7,15.9h0l-4.6-15.9h-3.1l6.1,20.3h3l4.6-15.9h0l4.5,15.9h3l6.1-20.3h-3.1ZM208.2,119.1h3v-20.3h-3v20.3ZM216,98.8v2.8h6.6v17.5h3v-17.5h6.6v-2.8h-16.1ZM236.7,98.8v2.7h10.4l-10.8,15.1v2.4h14.8v-2.7h-11.3l10.9-15.1v-2.4h-14ZM257,98.8v20.3h13.4v-2.7h-10.5v-6.3h9.3v-2.6h-9.3v-5.9h10.5v-2.7h-13.5ZM280,108.5v-7h4.7c.9,0,3.8,0,3.8,3.3s-2.2,3.7-4.4,3.7h-4.1ZM277,119.1h3v-8.1h3.2l5.2,8.1h3.5c0,0-5.6-8.5-5.6-8.5,2.3-.5,5.2-2,5.2-6s-2.4-5.7-6.7-5.7h-8v20.3ZM298,98.8v20.3h12.8v-2.8h-9.8v-17.4h-3ZM319.5,111.1h6.5l-3.3-9.1h0l-3.2,9.1ZM324.7,98.8l7.3,20.3h-3.1l-1.9-5.2h-8.5l-1.8,5.2h-3.1l7.3-20.3h3.8ZM350.5,98.8v15.8h0l-9.9-15.8h-3.3v20.3h3v-15.9h0l10,15.9h3.2v-20.3h-3ZM363.4,116.4v-14.8h3.7c4.1,0,6.2,2.8,6.2,7.4s-2,7.4-6.2,7.4h-3.7ZM360.4,119.1h6.5c6.1,0,9.4-4.1,9.4-10.2s-3-10.1-9.4-10.1h-6.5v20.3Z"/></g></g></svg>
