<?xml version="1.0" encoding="UTF-8"?>
<svg xmlns="http://www.w3.org/2000/svg" version="1.1" viewBox="0 0 100.2 129.7">
  <defs>
    <style>
      .cls-1 {
        fill: #b3b2b2;
      }

      .cls-2 {
        fill: #ffd300;
      }

      .cls-3 {
        fill: #878686;
      }

      .cls-4 {
        fill: #fff;
      }
    </style>
  </defs>
  <!-- Generator: Adobe Illustrator 28.7.1, SVG Export Plug-In . SVG Version: 1.2.0 Build 142)  -->
  <g>
    <g id="Ebene_1">
      <g>
        <path class="cls-4" d="M97.5,45.8c-1.3-3.2-3.1-5.7-5.3-7.5l-21.4-16.1s0,0,0,0c-2.1-1.6-4.4-2.6-7-3-3.8-.6-9.2-.1-16.1,1.5L0,32.3v64.4l13.2,3.2h0l9-3.2v5.4l18.3,4.5h0s13.7-7.3,13.7-7.3v10.6s27.4,6.7,27.4,6.7h0s0,0,0,0h0s0,0,0,0l17.9-19.9v-40.3c0-3.9-.7-7.4-1.9-10.5h0Z"/>
        <path class="cls-2" d="M77.9,111.6l-20.8-4.7v-50.4c0-4.5-.2-7.5-.5-8.9-1.3-4.8-4.7-6.8-10-6.1l-8.5,1.1v60l-13.9-3.1v-55.1l-12.7,1.6v50.7l-10.1-2.3v-60l46.3-10.3c6.5-1.4,11.7-1.8,15.1-1.2,5.7,1,10,5.4,12.7,13.4,1.5,4.5,2.3,9.6,2.3,15.3v60h0Z"/>
        <path class="cls-1" d="M97.5,45.8c-1.3-3.2-3.1-5.7-5.3-7.5l-21.4-16.1c3.4,2.6,6.1,6.7,8.1,12.3,1.7,5,2.6,10.7,2.6,16.9v65.2l17.9-19.9v-40.3c0-3.9-.7-7.4-1.9-10.5h0Z"/>
        <path class="cls-1" d="M53.8,49c0,0,0-.1,0-.2-.4-1.4-1.5-4.4-7.2-3.8l-6.1.7v60.9l13.8-7.3v-42.6c0-5.7-.3-7.3-.4-7.7h0Z"/>
        <polygon class="cls-1" points="13.2 99.9 22.2 96.7 22.2 47.7 13.2 48.6 13.2 99.9 13.2 99.9"/>
        <path class="cls-4" d="M97.5,45.8c-1.3-3.2-3.1-5.7-5.3-7.5l-21.4-16.1s0,0,0,0c-2.1-1.6-4.4-2.6-7-3-3.8-.6-9.2-.1-16.1,1.5L0,32.3v64.4l13.2,3.2h0l9-3.2v5.4l18.3,4.5h0s13.7-7.3,13.7-7.3v10.6s27.4,6.7,27.4,6.7h0s0,0,0,0h0s0,0,0,0l17.9-19.9v-40.3c0-3.9-.7-7.4-1.9-10.5h0Z"/>
        <path class="cls-2" d="M77.9,111.6l-20.8-4.7v-50.4c0-4.5-.2-7.5-.5-8.9-1.3-4.8-4.7-6.8-10-6.1l-8.5,1.1v60l-13.9-3.1v-55.1l-12.7,1.6v50.7l-10.1-2.3v-60l46.3-10.3c6.5-1.4,11.7-1.8,15.1-1.2,5.7,1,10,5.4,12.7,13.4,1.5,4.5,2.3,9.6,2.3,15.3v60h0Z"/>
        <path class="cls-3" d="M97.5,45.8c-1.3-3.2-3.1-5.7-5.3-7.5l-21.4-16.1c3.4,2.6,6.1,6.7,8.1,12.3,1.7,5,2.6,10.7,2.6,16.9v65.2l17.9-19.9v-40.3c0-3.9-.7-7.4-1.9-10.5h0Z"/>
        <path class="cls-3" d="M53.8,49c0,0,0-.1,0-.2-.4-1.4-1.5-4.4-7.2-3.8l-6.1.7v60.9l13.8-7.3v-42.6c0-5.7-.3-7.3-.4-7.7h0Z"/>
        <polygon class="cls-3" points="13.2 99.9 22.2 96.7 22.2 47.7 13.2 48.6 13.2 99.9 13.2 99.9"/>
      </g>
    </g>
  </g>
</svg>