<?xml version="1.0" encoding="UTF-8"?>
<svg xmlns="http://www.w3.org/2000/svg" version="1.1" viewBox="0 0 429.1 98.3">
  <defs>
    <style>
      .cls-1 {
        fill: #fdcd00;
      }

      .cls-2 {
        fill: #fefefe;
      }

      .cls-3 {
        fill: #93969b;
      }

      .cls-4 {
        fill: #60656b;
      }
    </style>
  </defs>
  <!-- Generator: Adobe Illustrator 28.7.3, SVG Export Plug-In . SVG Version: 1.2.0 Build 164)  -->
  <g>
    <g id="Ebene_1">
      <g>
        <path class="cls-1" d="M168.2,56.2v-5.1c0-.8,0-1.4.2-1.9.5-1.3,1.6-2,3.5-2h5.9v2.7h-6.3c-.5,0-.9.2-1.2.5-.1.2-.2.5-.2.9v2.3h7.6v2.7h-9.7Z"/>
        <path class="cls-1" d="M172,36.9h2.1v5.6c.6,0,1.1-.3,1.4-.7.2-.3.3-.9.3-1.6v-3.2h2.1v3.5c0,.9,0,1.5-.3,2-.3.9-.9,1.7-1.7,2.2-.8.5-1.8.8-3,.8s-2.2-.3-3.1-.9c-.7-.5-1.2-1.1-1.4-1.9-.2-.5-.3-1.2-.3-2v-3.7h2.1v3.5c0,.9.2,1.5.6,1.7.3.2.6.3,1.1.3v-5.6h0Z"/>
        <path class="cls-1" d="M168.1,30.2c0-1.7.5-3,1.6-3.9.9-.8,2.1-1.2,3.5-1.2s2.7.5,3.6,1.5c.8.9,1.3,2.1,1.3,3.7s-.5,2.9-1.4,3.8c-.9.8-2.1,1.3-3.6,1.3s-2.5-.4-3.4-1.2c-1-.9-1.5-2.2-1.5-4h0ZM170.1,30.3c0,1.6,1,2.4,3,2.4s1.4-.1,1.8-.4c.7-.4,1.1-1.1,1.1-2,0-1.6-1-2.4-3-2.4s-2.9.8-2.9,2.4h0Z"/>
        <path class="cls-1" d="M168.2,23.2v-5.1c0-.8,0-1.4.2-1.9.5-1.3,1.6-2,3.5-2h5.9v2.7h-6.3c-.5,0-.9.2-1.2.5-.1.2-.2.4-.2.9v2.3h7.6v2.7h-9.7Z"/>
        <path class="cls-2" d="M97.4,27.6c-1.3-3.2-3.1-5.7-5.3-7.5l-21.3-16.1s0,0,0,0c-2.1-1.6-4.4-2.6-7-3-3.8-.6-9.2-.1-16.1,1.5L0,14.1v64.3l13.2,3.2h0l9-3.2v5.4l18.3,4.5h0s13.7-7.3,13.7-7.3v10.6s27.3,6.6,27.3,6.6h0s0,0,0,0h0s0,0,0,0l17.9-19.9v-40.3c0-3.9-.7-7.4-1.9-10.5h0Z"/>
        <path class="cls-1" d="M77.8,93.4l-20.8-4.7v-50.4c0-4.5-.2-7.5-.5-8.9-1.3-4.8-4.7-6.8-10-6.1l-8.5,1.1v60l-13.9-3.1V26.3l-12.6,1.6v50.6l-10-2.3V16.4L47.6,6.1c6.5-1.4,11.7-1.8,15.1-1.2,5.7,1,10,5.4,12.7,13.4,1.5,4.5,2.3,9.6,2.3,15.3v59.9h0Z"/>
        <path class="cls-3" d="M97.4,27.6c-1.3-3.2-3.1-5.7-5.3-7.5l-21.3-16.1c3.4,2.6,6.1,6.7,8.1,12.3,1.7,5,2.6,10.7,2.6,16.9v65.1l17.9-19.9v-40.3c0-3.9-.6-7.4-1.9-10.5h0Z"/>
        <path class="cls-3" d="M53.8,30.8c0,0,0-.1,0-.2-.4-1.4-1.5-4.4-7.2-3.8l-6.1.7v60.8l13.7-7.3v-42.6c0-5.7-.3-7.3-.4-7.7h0Z"/>
        <polygon class="cls-3" points="13.2 81.7 22.1 78.5 22.1 29.5 13.2 30.5 13.2 81.7 13.2 81.7"/>
        <path class="cls-3" d="M164.3,72.4c0,.9,0,1.6.2,2,.3,1,.9,1.7,2,2,.5.1,1.2.2,2.2.2h2.2v-1.7h-1.9c-.6,0-1,0-1.3,0-.7-.1-1-.5-1.1-1.1,0-.2,0-.7,0-1.4v-5.3h-2v5.3h0ZM175.8,67c-.6,0-1,0-1.4.1-.5.1-.9.4-1.3.7-1,.9-1.5,2.2-1.5,3.9s.2,1.9.5,2.6c.3.6.6,1.1,1.1,1.4.4.3.9.6,1.6.7.5,0,1.2.1,1.9.1h2.6v-1.7h-2.6c-.3,0-.6,0-.9,0-.4,0-.6-.1-.8-.2-.2,0-.4-.2-.5-.4-.3-.4-.5-.9-.5-1.5h5.4v-1.7h-5.4c0-.6.1-1.1.3-1.3.2-.4.5-.7.8-.8.3-.1.8-.2,1.6-.2h2.6v-1.7h-3.4ZM180.7,67v5.8c0,.6,0,1.2.1,1.5.1.5.4,1,.8,1.4.7.6,1.8,1,3.2,1s1.7-.1,2.3-.4c.9-.4,1.5-1,1.7-1.8.2-.5.2-1.1.2-1.8v-5.6h-2v5.7c0,.7,0,1.2-.2,1.4-.1.3-.4.5-.7.6-.3.1-.7.2-1.2.2s-.8,0-1.2-.3c-.4-.2-.7-.5-.9-1,0-.2-.1-.6-.1-1v-5.7h-2ZM195.2,74.9c-.8,0-1.4-.2-1.8-.5-.5-.4-.8-1.4-.8-2.8s.2-1.8.5-2.2c.4-.5,1.1-.7,2-.7h3v-1.7h-3.2c-.9,0-1.7.1-2.2.3-.6.2-1.1.7-1.5,1.3-.5.8-.8,1.8-.8,3.1s.2,2,.5,2.7c.5,1.1,1.3,1.7,2.5,2,.3,0,.8,0,1.4,0h3.3v-1.7h-2.9ZM205.1,67v3.9h-3.7v-3.9h-2v9.5h2v-3.9h3.7v3.9h2v-9.5h-2ZM211.2,76.6h2v-7.8h3.2v-1.7h-8.2v1.7h3v7.8h0ZM217,67l3.1,9.5h2.3l2-6.9,2,6.9h2.3l3.1-9.5h-2.1l-2.1,7.2-2-7.2h-2.3l-2,7.2-2.2-7.2h-2.1ZM236.6,67c-.6,0-1,0-1.4.1-.5.1-.9.4-1.3.7-1,.9-1.5,2.2-1.5,3.9s.2,1.9.5,2.6c.3.6.6,1.1,1.1,1.4.4.3.9.6,1.6.7.5,0,1.2.1,1.9.1h2.6v-1.7h-2.6c-.3,0-.6,0-.9,0-.4,0-.6-.1-.8-.2-.2,0-.4-.2-.6-.4-.3-.4-.5-.9-.5-1.5h5.4v-1.7h-5.4c0-.6.1-1.1.2-1.3.2-.4.5-.7.9-.8.3-.1.8-.2,1.6-.2h2.6v-1.7h-3.4ZM245.3,72.9c.4,0,.7,0,1,0,.5.1.9.4,1.2.8.1.2.2.4.3.6,0,.2.1.5.1.9,0,.7.1,1.1.2,1.4h2.3c0-.3-.2-.8-.2-1.4,0-1-.3-1.7-.8-2.2-.2-.2-.5-.3-.9-.5,1.2-.4,1.8-1.3,1.8-2.8s0-.8-.3-1.2c-.2-.4-.5-.7-.9-1-.5-.3-1.5-.5-2.8-.5h-4.7v9.5h2v-3.6h1.6ZM243.7,68.7h2.8c.4,0,.6,0,.8,0,.5.2.7.5.7,1.1s-.1.9-.5,1.1c-.2.1-.5.2-1,.2h-2.8v-2.5h0ZM257.1,76.6c.4,0,.8,0,1.1,0,.7,0,1.3-.4,1.6-.9.3-.4.4-.9.4-1.6,0-1.1-.5-1.8-1.4-2.2.3-.1.5-.3.7-.5.4-.5.7-1.1.7-1.7s0-.8-.3-1.1c-.2-.5-.6-.9-1-1.1-.4-.2-1-.3-1.8-.3h-5.4v9.5h5.3ZM253.9,68.7h2.8c.5,0,.8,0,1,.2.3.2.4.5.4.8s0,.4-.2.6c-.1.2-.3.4-.5.5-.1,0-.4,0-.7,0h-2.8v-2.2h0ZM253.9,72.6h2.8c.5,0,.8,0,1,.2.3.2.4.5.4.8s0,.5-.2.7c-.1.2-.3.4-.5.5-.1,0-.4,0-.7,0h-2.8v-2.2h0ZM261.7,67v5.8c0,.6,0,1.2.1,1.5.1.5.4,1,.8,1.4.7.6,1.7,1,3.2,1s1.7-.1,2.3-.4c.9-.4,1.5-1,1.7-1.8.1-.5.2-1.1.2-1.8v-5.6h-2v5.7c0,.7,0,1.2-.2,1.4-.1.3-.4.5-.7.6-.3.1-.7.2-1.2.2s-.8,0-1.2-.3c-.4-.2-.7-.5-.9-1,0-.2-.1-.6-.1-1v-5.7h-2ZM277.7,76.6h2.5v-9.5h-1.9v7.1l-3.8-7.1h-2.6v9.5h1.9v-7l3.9,7h0ZM285.6,72.6h2.7v2.3h-1.8c-.6,0-1.1,0-1.4-.2-.4-.2-.7-.5-.9-1-.2-.5-.3-1.2-.3-2s.2-1.9.7-2.3c.4-.4,1-.6,1.9-.6h3.9v-1.7h-4.2c-.7,0-1.3,0-1.9.2-.9.2-1.5.7-2,1.5-.5.8-.7,1.8-.7,3.1s.3,2.4.8,3.3c.4.6.9,1,1.5,1.2.5.2,1.2.3,2.1.3h4.2v-5.7h-4.7v1.7h0ZM308,76.6c.4,0,.8,0,1.1,0,.7,0,1.3-.4,1.6-.9.3-.4.4-.9.4-1.6,0-1.1-.5-1.8-1.4-2.2.3-.1.5-.3.7-.5.4-.5.6-1.1.6-1.7s0-.8-.2-1.1c-.2-.5-.6-.9-1-1.1-.4-.2-1-.3-1.8-.3h-5.4v9.5h5.3ZM304.8,68.7h2.8c.5,0,.8,0,1,.2.3.2.4.5.4.8s0,.4-.2.6c-.1.2-.3.4-.5.5-.1,0-.4,0-.7,0h-2.8v-2.2h0ZM304.8,72.6h2.8c.5,0,.8,0,1,.2.3.2.4.5.4.8s0,.5-.2.7c-.1.2-.3.4-.5.5-.1,0-.4,0-.7,0h-2.8v-2.2h0ZM316.4,67c-.6,0-1,0-1.4.1-.5.1-.9.4-1.3.7-1,.9-1.5,2.2-1.5,3.9s.2,1.9.5,2.6c.3.6.6,1.1,1.1,1.4.4.3.9.6,1.6.7.5,0,1.2.1,1.9.1h2.6v-1.7h-2.5c-.3,0-.6,0-.9,0-.4,0-.6-.1-.9-.2-.2,0-.4-.2-.5-.4-.3-.4-.5-.9-.5-1.5h5.4v-1.7h-5.4c0-.6.1-1.1.3-1.3.2-.4.5-.7.9-.8.3-.1.8-.2,1.6-.2h2.6v-1.7h-3.4ZM326.2,76.6c.7,0,1.3,0,1.6,0,.8-.1,1.3-.5,1.7-1.2.3-.5.4-1,.4-1.6s-.1-1-.3-1.5c-.2-.6-.7-1-1.4-1.2-.4-.1-1-.2-1.8-.2h-1.5c-.6,0-1,0-1.2-.2-.3-.2-.5-.5-.5-.9s.2-.9.6-1c.2,0,.6,0,1.3,0h4.3v-1.7h-4.7c-.6,0-1,0-1.3,0-.8,0-1.5.4-1.8.9-.4.6-.6,1.2-.6,1.8s0,.8.2,1.2c.2.4.4.7.7,1,.5.4,1.2.6,2.3.6h1.8c.5,0,.8,0,1.1.2.4.2.6.6.6,1s-.2.7-.5.9c-.2.1-.7.2-1.4.2h-4.4v1.7h4.8ZM335.7,74.9c-.8,0-1.4-.2-1.8-.5-.5-.4-.8-1.4-.8-2.8s.2-1.8.5-2.2c.4-.5,1.1-.7,2-.7h3v-1.7h-3.2c-.9,0-1.7.1-2.2.3-.6.2-1.1.7-1.5,1.3-.5.8-.7,1.8-.7,3.1s.2,2,.5,2.7c.5,1.1,1.3,1.7,2.5,2,.4,0,.8,0,1.5,0h3.3v-1.7h-2.9ZM345.7,67v3.9h-3.7v-3.9h-2v9.5h2v-3.9h3.7v3.9h2v-9.5h-2ZM353.3,72.9c.4,0,.7,0,1,0,.5.1.9.4,1.2.8.1.2.2.4.2.6,0,.2.1.5.1.9,0,.7.1,1.1.2,1.4h2.3c-.1-.3-.2-.8-.2-1.4,0-1-.3-1.7-.8-2.2-.2-.2-.5-.3-.9-.5,1.2-.4,1.8-1.3,1.8-2.8s0-.8-.3-1.2c-.2-.4-.5-.7-.9-1-.5-.3-1.5-.5-2.8-.5h-4.6v9.5h2v-3.6h1.6ZM351.7,68.7h2.8c.4,0,.6,0,.8,0,.4.2.7.5.7,1.1s-.1.9-.4,1.1c-.2.1-.5.2-1,.2h-2.8v-2.5h0ZM361.9,76.6v-9.5h-2v9.5h2ZM365.8,70.9v-.5c0-.8.3-1.2.8-1.5.3-.1.9-.2,1.8-.2h3v-1.7h-3.3c-.7,0-1.2,0-1.6.1-1.1.2-1.9.7-2.4,1.6-.3.5-.4,1.4-.4,2.8v5h2v-3.9h5.7v-1.7h-5.7ZM375.1,76.6h2v-7.8h3.2v-1.7h-8.2v1.7h3v7.8h0ZM381.2,67v5.8c0,.6,0,1.2.1,1.5.1.5.4,1,.8,1.4.7.6,1.8,1,3.2,1s1.7-.1,2.3-.4c.9-.4,1.5-1,1.7-1.8.1-.5.2-1.1.2-1.8v-5.6h-2v5.7c0,.7,0,1.2-.2,1.4-.1.3-.4.5-.7.6-.3.1-.7.2-1.2.2s-.8,0-1.2-.3c-.4-.2-.7-.5-.9-1,0-.2,0-.6,0-1v-5.7h-2ZM397.2,76.6h2.5v-9.5h-1.9v7.1l-3.8-7.1h-2.6v9.5h1.9v-7l3.9,7h0ZM405.1,72.6h2.7v2.3h-1.8c-.6,0-1.1,0-1.4-.2-.4-.2-.7-.5-.9-1-.2-.5-.3-1.2-.3-2s.2-1.9.7-2.3c.4-.4,1-.6,1.9-.6h3.9v-1.7h-4.2c-.7,0-1.3,0-1.9.2-.9.2-1.5.7-2,1.5-.5.8-.7,1.8-.7,3.1s.3,2.4.8,3.3c.4.6.9,1,1.5,1.2.5.2,1.2.3,2,.3h4.3v-5.7h-4.7v1.7h0ZM415.2,67c-.6,0-1,0-1.4.1-.5.1-.9.4-1.3.7-1,.9-1.5,2.2-1.5,3.9s.2,1.9.5,2.6c.3.6.6,1.1,1,1.4.4.3,1,.6,1.6.7.5,0,1.2.1,1.9.1h2.6v-1.7h-2.6c-.3,0-.6,0-.9,0-.4,0-.6-.1-.9-.2-.2,0-.4-.2-.5-.4-.3-.4-.5-.9-.5-1.5h5.4v-1.7h-5.4c0-.6.1-1.1.3-1.3.2-.4.5-.7.8-.8.3-.1.8-.2,1.6-.2h2.6v-1.7h-3.4ZM426,76.6h2.5v-9.5h-1.9v7.1l-3.8-7.1h-2.6v9.5h1.9v-7l3.9,7h0Z"/>
        <path class="cls-2" d="M233.6,20.4c-1.8-4.8-4.8-7.9-9-9.3-2.5-.8-6.2-1.2-11.2-1.3h-49.2v50.6h16.8V23.9h9.8v36.7h16.8V23.9h4.8c4.5,0,5.1,1.9,5.4,2.7,0,.2.3,1.1.3,4.3v29.7h16.8v-31.7c0-3-.5-5.9-1.4-8.4ZM233.1,58.5h-12.8v-27.7c0-2.5-.1-4.1-.4-4.9-.9-2.7-3.3-4.1-7.3-4.1h-6.8v36.7h-12.8V21.9h-13.8v36.7h-12.8V11.9h47.2c4.8,0,8.3.4,10.6,1.2,3.6,1.2,6.2,3.8,7.7,8,.9,2.3,1.3,4.9,1.3,7.7v29.7Z"/>
        <path class="cls-2" d="M272.2,9.9v36.7h-10.1c-1.4,0-2.4-.4-3.1-1.1-.7-.8-1.1-2-1.1-3.6V9.9h-16.8v30.7c0,9.9,3.6,16.2,10.9,18.8,2.5.8,5.7,1.2,9.8,1.2h27.3V9.9h-16.8ZM287,58.5h-25.3c-3.8,0-6.9-.4-9.2-1.1-6.4-2.3-9.5-7.9-9.5-16.9V11.9h12.8v30c0,2.1.6,3.7,1.6,4.9,1.1,1.2,2.6,1.8,4.5,1.8h12.1V11.9h12.8v46.6Z"/>
        <path class="cls-2" d="M335.1,19.4c-1.3-4.3-4.4-7.2-9.3-8.5-2.6-.6-5.9-.9-9.9-.9h-21v50.6h16.8V23.9h1.7c3.5,0,4.7.8,5.1,1.2h0c.3.4,1.1,1.5,1.1,5.3v4.5h16.3v-6.6c0-3.9-.3-6.9-1-9.1ZM334.1,33h-12.3v-2.5c0-3.4-.6-5.6-1.7-6.7-1.1-1.2-3.3-1.9-6.6-1.9h-3.7v36.7h-12.8V11.9h19c3.8,0,7,.3,9.4.9,4.1,1.1,6.7,3.5,7.8,7.2.6,2,.9,4.8.9,8.5v4.5Z"/>
        <path class="cls-2" d="M363.6,23.9h19.1v-14h-20c-3.9,0-7.3.4-10.1,1.3-4.1,1.3-7.6,3.8-10.3,7.5-3.2,4.5-4.9,9.9-4.9,15.9s1.4,11.4,4.1,15.5c2.8,4.4,6.7,7.4,11.5,9.1,2.7.9,6.1,1.3,10.5,1.3h19.1v-14h-17.7c-4.1,0-5.9-.7-6.7-1.2-1.1-.8-1.8-1.8-2.3-3.2h26.7v-14h-26.7c.2-1,.6-1.8,1-2.4.8-1.2,3.2-1.9,6.6-1.9ZM380.7,30.2v10h-27c.2,3.1,1.4,5.4,3.5,6.8,1.5,1,4.1,1.6,7.9,1.6h15.7v10h-17.1c-4.1,0-7.5-.4-9.9-1.2-4.5-1.5-8-4.2-10.5-8.2-2.5-3.9-3.7-8.7-3.7-14.5s1.5-10.6,4.5-14.8c2.4-3.3,5.5-5.6,9.2-6.7,2.6-.8,5.7-1.2,9.5-1.2h18v10h-17.1c-4.3,0-7.1,1-8.3,2.9-.9,1.3-1.4,3.1-1.6,5.5h27Z"/>
        <path class="cls-2" d="M427.5,19.3c-1.3-4.3-4.4-7.2-9.3-8.5-2.6-.6-5.9-.9-9.9-.9h-21v50.7h16.8V23.8h1.7c3.5,0,4.7.8,5.1,1.2h0c.3.4,1.1,1.5,1.1,5.3v4.5h16.3v-6.6c0-3.9-.3-6.9-1-9.1ZM426.5,32.9h-12.3v-2.5c0-3.4-.6-5.6-1.7-6.7-1.1-1.2-3.3-1.9-6.6-1.9h-3.7v36.7h-12.8V11.8h19c3.8,0,7,.3,9.4.9,4.1,1.1,6.7,3.5,7.8,7.2.6,2,.9,4.8.9,8.5v4.5Z"/>
        <path class="cls-1" d="M168.2,56.2v-5.1c0-.8,0-1.4.2-1.9.5-1.3,1.6-2,3.5-2h5.9v2.7h-6.3c-.5,0-.9.2-1.2.5-.1.2-.2.5-.2.9v2.3h7.6v2.7h-9.7Z"/>
        <path class="cls-1" d="M172,36.9h2.1v5.6c.6,0,1.1-.3,1.4-.7.2-.3.3-.9.3-1.6v-3.2h2.1v3.5c0,.9,0,1.5-.3,2-.3.9-.9,1.7-1.7,2.2-.8.5-1.8.8-3,.8s-2.2-.3-3.1-.9c-.7-.5-1.2-1.1-1.4-1.9-.2-.5-.3-1.2-.3-2v-3.7h2.1v3.5c0,.9.2,1.5.6,1.7.3.2.6.3,1.1.3v-5.6h0Z"/>
        <path class="cls-1" d="M168.1,30.2c0-1.7.5-3,1.6-3.9.9-.8,2.1-1.2,3.5-1.2s2.7.5,3.6,1.5c.8.9,1.3,2.1,1.3,3.7s-.5,2.9-1.4,3.8c-.9.8-2.1,1.3-3.6,1.3s-2.5-.4-3.4-1.2c-1-.9-1.5-2.2-1.5-4h0ZM170.1,30.3c0,1.6,1,2.4,3,2.4s1.4-.1,1.8-.4c.7-.4,1.1-1.1,1.1-2,0-1.6-1-2.4-3-2.4s-2.9.8-2.9,2.4h0Z"/>
        <path class="cls-1" d="M168.2,23.2v-5.1c0-.8,0-1.4.2-1.9.5-1.3,1.6-2,3.5-2h5.9v2.7h-6.3c-.5,0-.9.2-1.2.5-.1.2-.2.4-.2.9v2.3h7.6v2.7h-9.7Z"/>
        <polyline class="cls-4" points="134.4 98.3 129.5 98.3 129.5 0 134.4 0"/>
        <path class="cls-2" d="M97.4,27.6c-1.3-3.2-3.1-5.7-5.3-7.5l-21.3-16.1s0,0,0,0c-2.1-1.6-4.4-2.6-7-3-3.8-.6-9.2-.1-16.1,1.5L0,14.1v64.3l13.2,3.2h0l9-3.2v5.4l18.3,4.5h0s13.7-7.3,13.7-7.3v10.6s27.3,6.6,27.3,6.6h0s0,0,0,0h0s0,0,0,0l17.9-19.9v-40.3c0-3.9-.7-7.4-1.9-10.5h0Z"/>
        <path class="cls-1" d="M77.8,93.4l-20.8-4.7v-50.4c0-4.5-.2-7.5-.5-8.9-1.3-4.8-4.7-6.8-10-6.1l-8.5,1.1v60l-13.9-3.1V26.3l-12.6,1.6v50.6l-10-2.3V16.4L47.6,6.1c6.5-1.4,11.7-1.8,15.1-1.2,5.7,1,10,5.4,12.7,13.4,1.5,4.5,2.3,9.6,2.3,15.3v59.9h0Z"/>
        <path class="cls-4" d="M97.4,27.6c-1.3-3.2-3.1-5.7-5.3-7.5l-21.3-16.1c3.4,2.6,6.1,6.7,8.1,12.3,1.7,5,2.6,10.7,2.6,16.9v65.1l17.9-19.9v-40.3c0-3.9-.6-7.4-1.9-10.5h0Z"/>
        <path class="cls-4" d="M53.8,30.8c0,0,0-.1,0-.2-.4-1.4-1.5-4.4-7.2-3.8l-6.1.7v60.8l13.7-7.3v-42.6c0-5.7-.3-7.3-.4-7.7h0Z"/>
        <polygon class="cls-4" points="13.2 81.7 22.1 78.5 22.1 29.5 13.2 30.5 13.2 81.7 13.2 81.7"/>
        <g>
          <path class="cls-3" d="M164.3,83h4c1,0,1.8.1,2.3.3,1,.4,1.7,1,2,2,.3.8.4,1.6.4,2.4s-.1,1.7-.4,2.4c-.2.8-.7,1.4-1.2,1.7-.5.3-1.1.5-1.8.6-.4,0-.8,0-1.3,0h-4v-9.5ZM166.4,84.7v6.1h2c.9,0,1.5-.2,1.8-.6.2-.2.4-.6.5-1,.1-.4.2-.9.2-1.4,0-.7-.1-1.4-.4-2-.2-.5-.6-.8-1-1-.3-.1-.7-.2-1.2-.2h-2Z"/>
          <path class="cls-3" d="M174.6,92.5v-9.5h2v9.5h-2Z"/>
          <path class="cls-3" d="M182,86.9h4.7v5.7h-4.3c-.8,0-1.5,0-2-.3-.7-.2-1.2-.6-1.5-1.2-.6-.8-.8-1.9-.8-3.3s.2-2.3.7-3.1c.5-.8,1.1-1.3,2-1.5.6-.1,1.2-.2,1.9-.2h4.2v1.7h-3.9c-.8,0-1.5.2-1.8.6-.5.4-.7,1.2-.7,2.4s.1,1.5.3,2c.2.5.5.8.9,1,.3.1.8.2,1.4.2h1.8v-2.3h-2.7v-1.7Z"/>
          <path class="cls-3" d="M188.4,92.5v-9.5h2v9.5h-2Z"/>
          <path class="cls-3" d="M194.5,84.7h-3v-1.7h8.2v1.7h-3.2v7.8h-2v-7.8Z"/>
          <path class="cls-3" d="M198.6,92.5l3.9-9.5h2.3l3.9,9.5h-2.4l-.9-2.2h-3.6l-.9,2.2h-2.4ZM203.7,85.3l-1.4,3.3h2.7l-1.4-3.3Z"/>
          <path class="cls-3" d="M209.8,83h2v5.3c0,.7,0,1.1,0,1.4,0,.6.5.9,1.1,1.1.3,0,.8,0,1.3,0h1.9v1.7h-2.2c-1,0-1.8,0-2.2-.2-1.1-.3-1.7-1-2-2-.1-.4-.2-1.1-.2-2v-5.3Z"/>
          <path class="cls-3" d="M221,92.5v-1.7h4.3c.7,0,1.2,0,1.4-.2.3-.2.5-.5.5-.9s-.2-.8-.6-1c-.2-.1-.6-.2-1.1-.2h-1.8c-1.1,0-1.9-.2-2.3-.6-.3-.3-.6-.6-.7-1-.2-.4-.2-.7-.2-1.2,0-.7.2-1.3.6-1.8.4-.5,1-.8,1.8-.9.3,0,.7,0,1.3,0h4.7v1.7h-4.3c-.6,0-1.1,0-1.3,0-.4.1-.6.4-.6,1s.2.8.5.9c.2.1.6.2,1.2.2h1.5c.8,0,1.4,0,1.7.2.7.2,1.1.6,1.4,1.2.2.5.3,1,.3,1.5s-.1,1.1-.4,1.6c-.4.7-.9,1-1.7,1.2-.4,0-.9,0-1.6,0h-4.8Z"/>
          <path class="cls-3" d="M231,92.5v-9.5h2v9.5h-2Z"/>
          <path class="cls-3" d="M238.4,86.9h4.7v5.7h-4.3c-.8,0-1.5,0-2-.3-.7-.2-1.2-.6-1.5-1.2-.6-.8-.8-1.9-.8-3.3s.2-2.3.7-3.1c.5-.8,1.1-1.3,2-1.5.6-.1,1.2-.2,1.9-.2h4.2v1.7h-3.9c-.8,0-1.5.2-1.8.6-.5.4-.7,1.2-.7,2.4s.1,1.5.3,2c.2.5.5.8.9,1,.3.1.8.2,1.4.2h1.8v-2.3h-2.7v-1.7Z"/>
          <path class="cls-3" d="M246.8,85.6v7h-1.9v-9.5h2.6l3.8,7.1v-7.1h1.9v9.5h-2.5l-3.9-7Z"/>
          <path class="cls-3" d="M254.1,92.5l3.9-9.5h2.3l3.9,9.5h-2.4l-.9-2.2h-3.6l-.9,2.2h-2.4ZM259.2,85.3l-1.4,3.3h2.7l-1.4-3.3Z"/>
          <path class="cls-3" d="M268.4,86.9h4.7v5.7h-4.3c-.8,0-1.5,0-2-.3-.7-.2-1.2-.6-1.5-1.2-.6-.8-.8-1.9-.8-3.3s.2-2.3.7-3.1c.5-.8,1.1-1.3,2-1.5.6-.1,1.2-.2,1.9-.2h4.2v1.7h-3.9c-.8,0-1.5.2-1.8.6-.5.4-.7,1.2-.7,2.4s.1,1.5.3,2c.2.5.5.8.9,1,.3.1.8.2,1.4.2h1.8v-2.3h-2.7v-1.7Z"/>
          <path class="cls-3" d="M281.9,83v1.7h-2.6c-.8,0-1.3,0-1.6.2-.3.1-.6.4-.9.8-.1.2-.2.7-.3,1.3h5.4v1.7h-5.4c0,.7.2,1.2.5,1.5.2.2.3.3.5.4.2,0,.5.2.8.2.3,0,.5,0,.9,0h2.6v1.7h-2.6c-.7,0-1.3,0-1.9-.1-.6-.1-1.2-.3-1.6-.7-.4-.3-.8-.8-1.1-1.4-.3-.7-.5-1.6-.5-2.6,0-1.6.5-2.9,1.5-3.8.4-.4.8-.6,1.3-.7.4,0,.8-.1,1.4-.1h3.4Z"/>
        </g>
      </g>
    </g>
  </g>
</svg>