<?xml version="1.0"?>
<svg xmlns="http://www.w3.org/2000/svg" xmlns:xlink="http://www.w3.org/1999/xlink" version="1.1" viewBox="0 0 263.6 263.6" width="900px" height="900px"><defs><style> .cls-1 { fill: none; } .cls-2, .cls-3 { fill: #fff; } .cls-2, .cls-4 { fill-rule: evenodd; } .cls-5 { fill: url(#linear-gradient); } .cls-6, .cls-4 { fill: #f5ab98; } </style><linearGradient id="linear-gradient" x1="-39.7" y1="375.7" x2="-34.9" y2="375.7" gradientTransform="translate(20054.6 -1844.7) rotate(-90) scale(53 -53)" gradientUnits="userSpaceOnUse"><stop offset="0" stop-color="#6f0818"/><stop offset=".5" stop-color="#a80a2e"/><stop offset="1" stop-color="#c13343"/></linearGradient></defs><g><g id="Ebene_1"><g><rect class="cls-1" width="263.6" height="263.6"/><rect class="cls-5" x="5.3" y="5.4" width="253.4" height="252.7"/><g><path class="cls-2" d="M73.6,15.8h24.2c3.2,0,7,1.7,7,6.8s-3.4,6.8-7.3,6.8h-3.6s-.3,0-.4.1c-.1.1-.1.4-.1.4v27s0,6.6-7.7,6.6-7.6-6.2-7.6-6.2v-27.4s0-.2-.2-.3c-.1-.1-.4-.2-.4-.2h-4.2s-6.7-.2-6.7-6.9,5.7-6.8,7.1-6.8"/><path class="cls-2" d="M114.8,15.8h24.3c3.2,0,7,1.7,7,6.8s-3.4,6.8-7.3,6.8h-3.6s-.3,0-.4.1c-.1.1-.1.4-.1.4v27s0,6.6-7.7,6.6-7.6-6.2-7.6-6.2v-27.4s0-.2-.2-.3c-.1-.1-.4-.2-.4-.2h-4.2s-6.7-.2-6.7-6.9,5.7-6.8,7.1-6.8"/><path class="cls-3" d="M199.3,29.3s0,.3,0,.5c-1.5,2.7-1.3,6.6,2,6.9,1.6.1,3.2-.7,3.7-2.3l3-6.6c.8-2.3,1.4-3.1,1.5-4.4.1-2.9-2.9-6.9-6.6-7.1-3.8-.1-6.4,2.7-6.7,5.1-.9,5.6,2.9,7.3,3.2,8"/><path class="cls-3" d="M231.3,14.8c7.7,0,13.5,3.4,13,9-.3,3.4-2.4,6.1-6.2,6.2-2.4,0-3.7-.9-5.7-2.3,0,0-1.4-.9-2.4-.8-1,0-1.6.6-2,1.4-.3.6-.3,1.2.7,1.6,5,2.5,8.2,2.4,12.2,5.1,3.5,2.4,5.8,5.1,5.9,12,.1,7.8-4.3,12.4-8.2,14.2-2.5,1.2-5.4,2.2-9.4,2.1-5,0-9.8-1.2-14.5-4.8-2-1.6-2.8-3.4-2.6-6,.3-3.7,3.4-6.4,7.1-6.3,2.1,0,3.9,1.6,5.3,2.4,1.5.8,2.3,1.3,3.4,1.4,1.3.2,3.3-.5,3.6-1.3.4-1.2-1.7-2.8-5.6-4.2-3.7-1.3-7.3-2.4-9.9-5.3-1.8-2.1-2.7-4.8-2.6-9.2.1-5,1.4-7.6,4.6-10.9,4.1-3.6,8.3-4.2,13.3-4.2"/><path class="cls-2" d="M16.9,39.6c0-13.2,11-23.9,24.6-23.9s24.6,10.7,24.6,23.9-11,23.9-24.6,23.9-24.6-10.7-24.6-23.9M32.1,39.6c0-5,4.2-9,9.4-9s9.4,4,9.4,9-4.2,9-9.4,9-9.4-4-9.4-9"/><path class="cls-2" d="M146.5,39.6c0-13.2,11-23.9,24.6-23.9s24.6,10.7,24.6,23.9-11,23.9-24.6,23.9-24.6-10.7-24.6-23.9M161.7,39.6c0-5,4.2-9,9.4-9s9.4,4,9.4,9-4.2,9-9.4,9-9.4-4-9.4-9"/><path class="cls-2" d="M103.7,229.3v17.3h68.3v-17.3h-5.8c-.6,0-1.1,0-1.4-.2-.2-.2-.3-.5-.3-.8-.2-2-.2-3-.1-5.2,0-3.4.3-5.8,1.4-8.9,2.3-6.9,4-8,6.4-12,2.6-4.1,4.5-7.8,6.2-13.5,2-6.5,2.3-17.2,2.4-18.7,0-1.3.5-2.6.7-4.3.4-3.9.5-5.5.5-9.7,0-6.4-.2-10.1-1.9-15.4-1.4-3.3-3.9-5.9-8.3-5.9-2.8,0-4.9.6-6.7,3.3-.2.1-.3.2-.6.1-.3,0-.7-.3-.9-.7-1.2-4.7-3.5-7.4-8.6-7.6-3.6-.1-6.1,1.6-8,4-.2.1-.4.2-.6.1-.3,0-.4-.1-.6-.3-1.7-4.2-4.6-5.7-8.2-5.5-4,.2-7.1,1.8-9.3,5.2-.2.3-.5.4-.8.4-.5,0-.7-.6-.8-1,0-7.1.3-10.7,0-17.5-.6-13.2-1.5-24.5-3.5-32.8-1-4.3-3.3-7.7-8.1-7.8-6.1,0-8.8,3.6-12,8.4-4,6.1-5,17.6-4.9,29.6,0,6.4.2,10,.2,16.4,0,10.4.3,16.3-.4,26.6-.6,5.7-2.3,10.7-2.8,14.2-1,7.1-1,12.2,1.1,18.6,2.8,8.4,8.4,11.6,11.7,20.2,2.1,5.4,3.8,6.6,4,19,0,.2.1.9-.2,1.2-.3.2-.7.2-.9.2h-7.3Z"/><path class="cls-4" d="M114.4,77.7c2.7,0,4.8,1.8,5.5,4.3,2.7,9.8,2.9,16.2,3.7,26.6.8,9.9.7,15.5.5,25.4,0,.8-.1,1.3-.2,2.2-.1,1,0,2.1-.4,2.5-.7,1.1-4.9,3.2-11.4,9.1-4.1,3.8-6.6,5.9-10.6,9.8-.1.2-.2.2-.4,0-.1,0,0-.3,0-.6.5-2.6.9-9.2.7-16-.3-11.3-.5-17.6-.7-28.9-.2-10.4.3-18.8,3.8-26.4,2.1-4.5,5.5-8.2,9.5-8.2"/><path class="cls-4" d="M133,141.1c-1.1-1.3-2.9-1.4-4.7-1-1.9.5-10.9,7.6-12.1,8.6-12.6,10.5-18.8,15.8-18.8,29,0,13.6,7.2,18.7,11.9,27,3.8,6.6,5.5,14.5,5.5,23.2,0,.2,0,.4.1.5,0,0,.3,0,.3,0h46.3s.2,0,.3,0c.1,0,.1-.4.1-.4-.2-5.2-.1-8.3,1.1-13.5,2.1-8.9,8.2-14.1,11.6-22.5,1.5-3.8,2.9-10.7,2.1-10.4-.3-.2-2.2,2.8-5.9,2.8-6.5,0-7.7-8.7-8.2-8.4-.5-.1-1.8,4.7-6.3,7.4-4.6,2.6-7.4-.8-7.4-.1.1,1.1,1.2,6.3.7,10.2-.5,4-2.8,9.2-4.6,9-1.7-.6,0-2.9.8-6.4.6-2.2.6-4.8,0-7.6-.5-2.8-3.1-5.8-3.4-5.4-.4-.3-1.4,4.1-7.2,4.3-6,.2-9.5-6.3-10.3-11.3,0-.1-.3-.5-.5-.4-2,1.7-5,4.2-6.4,2.6-.6-.6-.4-1.4-.2-1.9.3-.5.8-.9,1.5-1.4,6.1-5.3,8.8-8.5,11.7-14.5,3.6-7.4,4.8-16.3,2-19.5"/><path class="cls-6" d="M131,134.8c1.7-2.7,4.2-3.7,7.4-3.5,4.3.3,5.6,4.4,6.2,10.7.6,6.3.8,10.4.2,17-.9,10.4-2.5,24.5-9.7,24.8-5.5.3-7.8-11.7-6.9-12.2,3.7-4.9,6-8.1,7.8-12.8,2.7-7.4,2.7-16.6.7-19.1-1.5-2-2.2-2.7-4.5-3.3-.6-.2-1.5,0-1.5-.5,0-.2-.1-.7.3-1.1"/><path class="cls-4" d="M148.5,136.8c1.5-2.6,3.2-3.5,6-3.9,5.7-.7,7.1,7,7.6,12.6.5,5.7.7,12.7,0,18.2-1,7.2-4,17.1-9.2,16.8-4.2-.2-5.9-6.9-5.4-11.6.7-6.7.8-10.8.9-17.7.2-6.6-1.3-12,.2-14.5"/><path class="cls-4" d="M171.9,137.8c2.5,0,4.2,1.3,5.4,3.7,1.8,3.6,1.9,8.5,1.9,13.9,0,6.4-.2,11.5-1.9,17.7-1.1,3.9-2.7,7.5-6.1,7.5s-5.1-4.7-5.6-9c-.4-2.8-.2-5.1.2-7.7.4-3.8.5-5.9.5-9.7,0-3.5-.5-6.4-.6-9.1,0-1.9.4-3.7,1.9-5.3,1.3-1.3,2.6-2,4.3-2.1"/></g></g></g></g></svg>
