<?xml version="1.0"?>
<svg xmlns="http://www.w3.org/2000/svg" version="1.1" viewBox="0 0 491.1 78.8" width="900px" height="144px"><defs><style> .cls-1, .cls-2 { fill: #00883b; } .cls-3 { fill: #fff; } .cls-2 { stroke: #00883b; stroke-width: .4px; } </style></defs><g><g id="Ebene_1"><g><path d="M118.2,51.7l1.8-2.6c1-1.3,1.8-2.4,2.8-3.7l10.7-13.9h10.4l-13.1,16.2-4.2,5.3,18.2,25.2h-11.1l-11.8-16.8c-.9-1.2-1.7-2.4-2.5-3.6l-1.2-2v22.3h-8.4V31.6h8.4v20.1Z"/><path d="M165.7,78.2v-5.1c-.4.9-.6,1.1-.9,1.5-1.2,1.7-4.1,4.2-9,4.2s-6.8-.3-9.6-5.2c-.5-.8-1.4-2.8-1.4-5.5s1.1-4.8,1.5-5.7c3.1-5,9.5-5.7,14.3-5.7s3.1,0,4.6.1c0,0,0-2.4-.5-3.7-.7-1.9-2.4-4-6.4-4s-7,1.8-8.1,2.4c-.5.3-.8.5-1.6,1.3l-.2-7.8c4-1.5,6.5-2.3,10.7-2.3s2.6,0,4.6.5c5.2,1.3,7.3,4.6,8,7,.7,2,.7,4.1.8,8.3v8.2c0,3.4,0,6.7.2,10.1,0,.4,0,.8,0,1.2h-7.2ZM155.3,64c-1,.7-1.4,1.5-1.7,2-.2.3-.5,1.1-.5,2.2s.2,1.3.4,1.9c1.1,2.6,3.7,2.7,4.5,2.7,1.1,0,3.9-.4,5.8-3.2,1.5-2.2,1.6-4.4,1.8-7-3-.1-7.5-.4-10.2,1.5Z"/><path d="M201.1,78.2v-16.7c0-3.8,0-8.5-2.9-10.4-.5-.3-1.4-.8-2.9-.8s-3.7.3-5.4,3.2c-1.5,2.5-1.7,5.6-1.7,8.5v16.2h-8.1v-26.3c0-2.8-.1-5.5-.2-8.3h7.8v5.3c.7-1,1.6-2.4,3.8-3.9,1.4-.9,3.3-2,7-2s2.1,0,3.6.5c3.2,1,5.6,3.6,6.5,7.2.7,2.6.7,7.1.7,9.8v17.7h-8Z"/><path d="M226.3,43.6h7.3v6.7h-7.3v14.7c0,1.5,0,6.3,4.7,6.3s1.4,0,2.9-.5l.2,7.1c-2,.5-3.3.9-5.3.9s-5.1,0-7.7-3c-2.7-3.1-2.7-8.3-2.6-12.3v-13.1h-6v-6.7h6v-6.9l7.8-2.8v9.7Z"/><path d="M259.1,44.4c6.1,2.9,9.2,9.4,9.2,16.6s0,4.2-1.2,7.4c-1.4,3.8-5.3,10.4-14.9,10.4s-6.4-.1-10.6-3.9c-2.2-2-5.6-6.1-5.6-14s.4-5.2,1.2-7.5c2.5-7,8.4-10.4,15-10.4s4,0,7,1.5ZM248.3,50.9c-1.8,1.3-3.9,4.4-3.9,9.8s0,7.1,3.7,10c1.2,1,2.6,1.4,4,1.4,3.7,0,7.5-3,7.5-11.4s-.3-5.2-1.6-7.5c-.7-1.2-2.4-3.7-5.9-3.7s-3.3.9-3.9,1.3Z"/><path d="M294.6,78.2v-16.7c0-3.8,0-8.5-2.9-10.4-.5-.3-1.4-.8-2.9-.8s-3.7.3-5.4,3.2c-1.5,2.5-1.7,5.6-1.7,8.5v16.2h-8.1v-26.3c0-2.8-.1-5.5-.2-8.3h7.8v5.3c.7-1,1.6-2.4,3.8-3.9,1.4-.9,3.3-2,7-2s2.1,0,3.6.5c3.2,1,5.6,3.6,6.5,7.2.7,2.6.7,7.1.7,9.8v17.7h-8Z"/><path d="M327.3,78.2v-5.1c-.4.9-.6,1.1-.9,1.5-1.2,1.7-4.1,4.2-9,4.2s-6.8-.3-9.6-5.2c-.5-.8-1.4-2.8-1.4-5.5s1.1-4.8,1.5-5.7c3.1-5,9.5-5.7,14.3-5.7s3.1,0,4.6.1c0,0,0-2.4-.5-3.7-.7-1.9-2.4-4-6.4-4s-7,1.8-8.1,2.4c-.5.3-.8.5-1.6,1.3l-.2-7.8c4-1.5,6.5-2.3,10.7-2.3s2.6,0,4.6.5c5.2,1.3,7.2,4.6,8,7,.7,2,.7,4.1.8,8.3v8.2c0,3.4,0,6.7.2,10.1,0,.4,0,.8,0,1.2h-7.2ZM316.9,64c-1,.7-1.4,1.5-1.7,2-.2.3-.5,1.1-.5,2.2s.2,1.3.4,1.9c1.1,2.6,3.7,2.7,4.5,2.7,1.1,0,3.9-.4,5.8-3.2,1.5-2.2,1.6-4.4,1.8-7-3-.1-7.5-.4-10.2,1.5Z"/><path d="M349.6,27.8v50.5h-8.1V27.8h8.1Z"/><path d="M365.1,27.8v21.3c.5-.9,1-1.8,2.4-3.1,2.1-2,4.5-3,7.2-2.9,1.1,0,3.3,0,5.7,1.5,3.2,1.8,7.2,6.3,7.2,15.5s-.3,4.4-.4,5.2c-.6,3.8-1.7,7.3-4.2,10-1.4,1.5-3.9,3.6-8.5,3.6s-6.8-2-8-3.5c-.7-.7-1.1-1.6-1.6-2.4v5.3h-7.7V27.8h8ZM368.9,51.5c-1.8,1.3-3.7,4.1-3.7,9.4s.8,7.3,3.4,9.4c1.5,1.3,2.9,1.3,3.6,1.3s2,0,3.4-1.1c1.7-1.3,3.6-4.4,3.6-9.8s-.7-6.9-2.9-8.9c-1.1-1-2.4-1.5-3.8-1.5-.6,0-2.1.1-3.6,1.3Z"/><path d="M412.1,78.2v-5.1c-.4.9-.6,1.1-.9,1.5-1.2,1.7-4.1,4.2-9,4.2s-6.8-.3-9.6-5.2c-.5-.8-1.4-2.8-1.4-5.5s1.1-4.8,1.5-5.7c3.1-5,9.5-5.7,14.3-5.7s3.1,0,4.6.1c0,0,0-2.4-.5-3.7-.7-1.9-2.4-4-6.4-4s-7,1.8-8.1,2.4c-.5.3-.8.5-1.6,1.3l-.2-7.8c4-1.5,6.5-2.3,10.7-2.3s2.6,0,4.6.5c5.2,1.3,7.3,4.6,8,7,.7,2,.7,4.1.8,8.3v8.2c0,3.4,0,6.7.2,10.1,0,.4,0,.8,0,1.2h-7.2ZM401.7,64c-1,.7-1.4,1.5-1.7,2-.2.3-.5,1.1-.5,2.2s.2,1.3.4,1.9c1.1,2.6,3.7,2.7,4.5,2.7,1.1,0,3.9-.4,5.8-3.2,1.5-2.2,1.6-4.4,1.8-7-3-.1-7.5-.4-10.2,1.5Z"/><path d="M447.5,78.2v-16.7c0-3.8,0-8.5-2.9-10.4-.5-.3-1.4-.8-2.9-.8s-3.7.3-5.4,3.2c-1.5,2.5-1.7,5.6-1.7,8.5v16.2h-8.1v-26.3c0-2.8-.1-5.5-.2-8.3h7.8v5.3c.7-1,1.6-2.4,3.8-3.9,1.4-.9,3.3-2,7-2s2.1,0,3.6.5c3.2,1,5.6,3.6,6.5,7.2.7,2.6.7,7.1.7,9.8v17.7h-8Z"/><path d="M470.4,57.6c1-1.5,1.9-2.9,2.9-4.3l7-9.7h9.3l-11.6,15.3,13.1,19.4h-10l-6.9-10.5c-.8-1.3-1.5-2.6-2.3-3.9-.5-.9-1.1-1.8-1.5-2.8v17.2h-8V27.8h8v29.9Z"/><g><rect class="cls-2" x=".2" y=".2" width="78.1" height="78.1"/><rect class="cls-3" x="3.2" y="3.2" width="72.1" height="72.1"/><polygon class="cls-1" points="15.3 39.2 35 71.5 71.1 71.5 51.3 39.3 71.2 7 35.1 7 15.3 39.2"/></g></g></g></g></svg>
