<?xml version="1.0"?>
<svg xmlns="http://www.w3.org/2000/svg" version="1.1" viewBox="0 0 510.8 145.4" width="900px" height="256px"><defs><style> .cls-1 { fill: #fff; } .cls-1, .cls-2 { fill-rule: evenodd; } .cls-3 { fill: #e40523; } .cls-2 { fill: #008031; } </style></defs><g><g id="Ebene_1"><g id="Ebene_1-2" data-name="Ebene_1"><g><polygon class="cls-3" points="6.2 6.2 390.4 6.2 390.4 83.1 6.2 83.1 6.2 6.2 6.2 6.2"/><path class="cls-2" d="M217,112.8c-1.2.5-2.5.9-3.8,1.4-1.6.5-3.4,1.1-5.2,1.5-1.8.5-3.6.8-5.3,1.1-1.7.3-3.4.4-4.9.4h0c-1.3,0-2.4,0-3.3-.3-.9-.2-1.6-.5-2.1-.9s-.8-.9-.9-1.4c0-.5,0-1.1.2-1.7,0,0,0,0,.2,0,.9,0,1.8,0,2.7.2h2.9c1.5,0,3,0,4.5-.2,1.5,0,3.1-.3,4.6-.5s3.1-.5,4.5-.9c1.5-.3,2.9-.7,4.3-1.2,1.4-.4,2.7-.9,3.9-1.5s2.3-1.1,3.3-1.7,1.9-1.3,2.6-2c.7-.7,1.3-1.4,1.7-2.2h0c.6-1.2.7-2.4.4-3.3-.3-1-1.1-1.8-2.2-2.5s-2.6-1.2-4.4-1.6c-1.8-.4-3.8-.5-6.1-.5s-4.1,0-6.1.4c-2,.2-4,.6-6,1s-3.9,1-5.7,1.6-3.6,1.3-5.3,2.1c-1.7.8-3.3,1.6-4.7,2.5-1.5.9-2.8,1.9-4,2.9s-2.3,2.1-3.2,3.2-1.7,2.3-2.3,3.4h0c-.9,1.8-1.1,3.5-.8,4.9s1.1,2.6,2.4,3.6c1.3,1,3.1,1.7,5.2,2.3,2.2.5,4.7.8,7.6.8s4.5,0,6.4-.3c1.9-.2,3.7-.5,5.3-.8s3.1-.7,4.4-1.1c1.3-.4,2.5-.8,3.5-1.1h0l5.9-7.1v-.2h-.2v-.2ZM208.9,101.8c1.2,0,2.2.3,2.8.7.6.4.9,1,.7,1.7h0c-.2.3-.4.6-.7.9s-.7.5-1.1.8-.9.5-1.4.7-1.1.4-1.7.6c-.6.2-1.3.3-2,.5-.7,0-1.4.3-2.2.4s-1.5.2-2.4.2h-2.5c-.9,0-2.3,0-3.3-.2,0,0-.1,0-.1,0v-.2l.7-.7c.4-.3.8-.7,1.3-1s1-.7,1.5-1,1.1-.7,1.7-1c.6-.3,1.3-.6,1.9-.9.7-.3,1.4-.5,2.1-.7.7-.2,1.5-.4,2.2-.5.8,0,1.5-.2,2.3-.2h.2ZM236.4,108.6l-.3-5.2-.3-5.3h0c0-.7-.2-1.1-.4-1.5-.1-.3-.3-.5-.5-.7v-.2h17.5s.1,0,.2,0v.2c-.5.3-1,.6-1.3,1h0c-.2.4-.2.9-.2,1.5v4.3h0c0,0,.1,0,.2,0l6.4-3.8c1.3-.8,2.4-1.4,2.7-2.1h0c.2-.4.2-.9,0-1.2v-.2h16.5s.1,0,.2,0c0,0,0,.2-.1.2-.6.2-1.1.5-1.8.8-1,.5-2.2,1.1-3.9,2.1l-16.7,9.6v2c.1,0,.3,2,.3,2h0c0,.6,0,1.2.2,1.8.1.5.3,1,.5,1.4.3.4.6.7,1.1.9.5.2,1.1.3,2,.3s2.2-.2,3.2-.3h.2v.2l-8.4,6.1h0c-1.6.3-3.3.6-4.7.6s-2.5,0-3.5-.3c-1-.2-1.8-.5-2.4-.9-.6-.4-1.1-1-1.5-1.7s-.6-1.5-.7-2.5h0l-.6-4.2h0c0,0-.1,0-.2,0l-8.7,5.1c-1.3.8-3.1,1.8-3.5,2.6h0c-.1.4,0,.8.3,1.2v.2h-16.9s-.1,0-.2,0v-.2c.8-.3,1.7-.7,2.7-1.2s3.1-1.6,5.1-2.7l17.5-9.9v-.2h0ZM257.3,129.1c-.6.7-1.1,1.2-1.6,1.7-.5.4-1,.8-1.4,1-.5.3-.9.5-1.4.7-.2,0-.5.2-.7.3,0,0-.1.1-.1.2,0,0,0,.1.2.1h18.4v-.2c-.3-.5-.7-1-.3-1.6h0c.2-.3.3-.9,1.1-1.8h0l5-6h.1c.8,0,1.5.2,2.2.2h2.2c2.3,0,4.6,0,6.8-.4,2.2-.3,4.4-.7,6.5-1.2s4.1-1.1,6-1.9c1.9-.7,3.8-1.5,5.5-2.4s3.4-1.9,4.9-2.9,2.9-2.1,4.1-3.2,2.3-2.3,3.3-3.5c.9-1.2,1.7-2.4,2.3-3.6.7-1.4,1-2.8.9-3.9,0-1.2-.5-2.2-1.3-3s-1.9-1.5-3.2-1.9c-1.4-.4-3-.7-4.8-.7s-1.9,0-2.8,0c-.9,0-1.7.2-2.5.3-.8,0-1.6.3-2.3.4s-1.4.4-2.1.6-1.3.4-1.9.7c-.6.2-1.2.5-1.7.7-.6.3-1.1.5-1.6.8-.5.2-.9.5-1.4.7h-.2l2.8-3.3v-.2h-15.8v.2c.2.2.3.4.4.6.1.3.2.7,0,1h0c-.2.3-.5.9-1.3,1.7h0l-12.3,14.9-12.3,14.9h.3ZM303.3,101.8c1.2,0,1.9.3,2.3.8.3.5.3,1.3-.2,2.2-.3.6-.7,1.3-1.1,1.9-.5.7-1,1.3-1.6,2s-1.3,1.3-2,2c-.7.6-1.5,1.3-2.4,1.8-.9.6-1.8,1.1-2.7,1.6-.9.5-1.9.9-3,1.3-1,.4-2.1.6-3.2.8-1.1.2-2.2.3-3.3.3s-2.4,0-3.5-.2c0,0-.1,0-.1,0v-.2c.4-.5.9-1.1,1.5-1.8.6-.7,1.4-1.5,2.1-2.3.8-.8,1.6-1.6,2.5-2.4s1.8-1.6,2.8-2.4,2-1.5,3-2.1c1-.7,2-1.2,3.1-1.7,1-.5,2-.9,3-1.2,1-.3,2-.4,2.9-.4h0ZM332.6,99.4c.6-.9.9-1.4,1.1-1.7h0c.3-.6,0-1.2-.3-1.7v-.2h15.2v.2l-3.5,4.4h0c.4-.2.9-.5,1.4-.8s1-.6,1.6-.9,1.1-.6,1.7-.9,1.2-.6,1.9-.9,1.3-.5,2-.8c.7-.2,1.4-.4,2.1-.6s1.5-.3,2.2-.4c.8,0,1.5,0,2.3,0s1.5,0,2.1,0c.6,0,1.1.2,1.5.3.4,0,.8.3,1.1.4.3,0,.5.3.8.4h0v.2l-5.9,7.2h-.2c-.5-.5-1.1-.9-1.8-1.2-.8-.4-1.9-.6-3.1-.6s-1.8,0-2.7.3c-.9.2-1.8.5-2.7.8-.9.4-1.8.8-2.8,1.3-.9.5-1.8,1.1-2.7,1.7-.9.6-1.8,1.3-2.7,2-.9.7-1.7,1.5-2.6,2.3-.8.8-1.6,1.6-2.4,2.4s-1.5,1.7-2.2,2.5h0l-3.3,3.8h0c-.6,1-.9,1.5-1.1,1.7h0c-.3.6,0,1.2.4,1.7v.2h-18.5s-.1,0-.2,0v-.2c1.7-.7,2.9-1.2,5-3.7l16.2-19.5h0v.4ZM393.3,112.8c-5.1,2-13.4,4.4-19,4.4s-7.1-1.8-6.1-4.3c0,0,0,0,.2,0,1.7,0,3.6.2,5.4.2,11.9,0,26.5-4.1,29.5-10.2.3-.6.5-1.2.6-1.7,0-.6,0-1.1-.1-1.6-.2-.5-.4-.9-.8-1.4-.4-.4-.8-.8-1.4-1.1-.6-.3-1.2-.6-1.9-.9-.7-.3-1.6-.5-2.5-.7s-1.9-.3-2.9-.4c-1,0-2.2,0-3.3,0h-3.1c-1,0-2,0-3.1.3-1,0-2,.3-3,.4-1,.2-2,.4-3,.6s-1.9.5-2.9.7c-.9.3-1.9.6-2.8.9s-1.8.6-2.7,1c-.9.4-1.7.7-2.6,1.1-.8.4-1.6.8-2.4,1.2-.8.4-1.5.9-2.3,1.3-.7.5-1.4.9-2.1,1.4s-1.3,1-1.9,1.5-1.2,1-1.7,1.6c-.5.5-1,1.1-1.5,1.6-.5.6-.9,1.1-1.2,1.7-.4.6-.7,1.2-1,1.7-3.6,7.2,2.7,11.5,14.3,11.5s15.3-2,19.6-3.4h0l5.9-7.1v-.2h-.2ZM385.2,101.8c2.4,0,4.1,1,3.5,2.3h0c-1.1,2.4-7.1,4.2-13.9,4.2s-2.1,0-3.1-.2c0,0-.1,0-.1,0v-.2c2.3-2.4,7.6-6,13.7-6h-.1ZM483.6,106c-1.3-1.8-5.4-4.7-12.4-4.7s-5.4.8-5.9,1.7h0c-.6,1.3,2.9,2.3,6.7,3.2,4.8,1.2,9.5,3,7.4,7.1-2.9,5.8-13.2,10.3-25,10.3s-12-2.6-14.7-2.6-1.9.3-3,.6h-.2v-.2l7.6-9h.2c1.4,2.4,5,4.8,12.1,4.8s6.7-.8,7.4-2.5h0c.8-1.8-4.9-2.1-9.5-3.5-3.6-1.1-6.7-2.9-4.8-6.6h0c2.5-5.2,12.2-9.7,23.4-9.7s13,2.2,15.4,2.2,1.8-.2,2.8-.5h.2v.2l-7.6,9.1h-.2.1ZM441,106c-.1-.2-.3-.4-.4-.5-.2-.3-.5-.5-.8-.8s-.7-.5-1.1-.8-.9-.5-1.4-.8-1.1-.5-1.7-.7-1.3-.4-2-.6-1.5-.3-2.3-.4c-.8,0-1.7,0-2.6,0-1.6,0-2.9.2-3.9.5s-1.7.7-1.9,1.2h0c-.2.3,0,.6.2.9.3.3.8.6,1.4.8.6.3,1.4.5,2.3.8s1.8.5,2.7.7c1.2.3,2.4.6,3.5,1s2.1.9,2.8,1.4,1.3,1.2,1.5,2,.1,1.6-.4,2.7c-.4.7-.8,1.4-1.4,2.1s-1.3,1.3-2,1.9c-.8.6-1.6,1.2-2.6,1.8-1,.5-2,1.1-3.1,1.5-1.1.5-2.3.9-3.5,1.2-1.2.4-2.5.7-3.9.9-1.3.3-2.7.5-4.2.6-1.4,0-2.9.2-4.4.2-2.5,0-4.6-.2-6.2-.4-1.6-.2-2.9-.6-4-.9-1-.3-1.8-.6-2.6-.9s-1.3-.4-2-.4c-1,0-1.9.3-3,.6h-.2v-.2l3.7-4.4,3.9-4.6h.2c.3.5.7,1.1,1.3,1.6.6.6,1.4,1.1,2.4,1.6s2.2.9,3.6,1.2c1.4.3,3,.4,4.8.4s1.6,0,2.4-.2c.8,0,1.5-.3,2.2-.5s1.3-.5,1.8-.8.9-.7,1.1-1.1h0c.2-.4,0-.8-.5-1.1-.5-.3-1.3-.6-2.2-.8-1-.2-2.1-.5-3.2-.7-1.2-.3-2.4-.5-3.5-.9-.9-.3-1.8-.6-2.5-1-.8-.4-1.4-.8-1.9-1.4-.5-.5-.8-1.1-.9-1.8,0-.7,0-1.5.6-2.4h0c.3-.7.7-1.3,1.3-1.9.5-.6,1.2-1.2,1.9-1.8.7-.6,1.5-1.1,2.4-1.6s1.9-1,2.9-1.4,2.1-.8,3.3-1.2c1.2-.4,2.4-.7,3.6-.9,1.3-.2,2.6-.4,3.9-.6,1.3,0,2.7-.2,4.1-.2h2.9c.9,0,1.8,0,2.6.2.8,0,1.6.2,2.3.4.7,0,1.4.3,2,.4s1.2.3,1.8.4c.5,0,1,.2,1.5.4.5,0,.9.2,1.2.2h1c.8,0,1.8-.2,2.8-.5h.2v.2l-7.6,9.1h-.2v.4Z"/><path class="cls-2" d="M450.6,84.6c7.2,0,14.3-1.5,20.5-4.6,12.2-6,20.5-19.7,20.5-34.4,0-22.5-18-41-41-41s-41,18.4-41,41,8.3,28.4,20.5,34.4c6.2,3,13.3,4.6,20.5,4.6h0ZM450.6,12.9h0c18.2,0,32.8,15.3,32.8,32.8s-3.8,15.3-5.1,17.3c-4.5,7.3-11.3,9.8-16.6,9.9-3.6,0-7-2.6-7-7v-6.1h21.6c-9.3-10-21.6-30.6-25.7-44.6-4.1,14-16.4,34.6-25.7,44.6h21.6v6.1c0,4.4-3.4,7-7,7-5.3,0-12.1-2.6-16.6-9.9-1.3-2-5.1-9.1-5.1-17.3,0-17.5,14.6-32.8,32.8-32.8h0Z"/><path class="cls-1" d="M186.9,29.7v34.1c0,3.2-2.6,5.9-5.9,5.9s-5.9-2.6-5.9-5.9V29.6c0-5.5,4.5-9.9,9.9-9.9h33.7c8.3,0,15,6.7,15,15s-6.7,15-15,15h-20.1c-5.5,0-9.9-4.5-9.9-9.9h29.2c2.8,0,5-2.2,5-5s-2.2-5-5-5h-31.2.2ZM141.1,69.6c8.3,0,15-6.7,15-15s-6.7-15-15-15h-27.9c-2.8,0-5-2.2-5-5s2.2-5,5-5h41c0-5.5-4.5-10-9.9-10h-31.8c-8.3,0-15,6.7-15,15s6.7,15,15,15h27.9c2.8,0,5,2.2,5,5s-2.2,5-5,5h-42.9c0,5.5,4.5,10,9.9,10h33.7ZM307.5,61.2c1.7,2.4,1.1,5.8-1.3,7.5s-5.8,1.1-7.5-1.3l-5.4-7.7h-38.2l-5.4,7.7c-1.7,2.4-5.1,3-7.5,1.3s-3-5.1-1.3-7.5l26.7-38.1c1.6-2.2,3.9-3.4,6.6-3.4s5.1,1.2,6.6,3.4l26.7,38.1h0ZM286.3,49.6l-10.8-15.5c-.3-.4-.7-.7-1.3-.7s-1,.2-1.3.7l-10.8,15.5h24.2,0ZM334.2,29.7v34.1c0,3.2-2.6,5.9-5.9,5.9s-5.9-2.6-5.9-5.9V29.6c0-5.5,4.5-9.9,9.9-9.9h33.7c8.3,0,15,6.7,15,15s-3.7,11.4-9,13.7l8.9,12.8c1.7,2.4,1.1,5.8-1.3,7.5s-5.8,1.1-7.5-1.3l-1.4-2-11-15.7h-13.8c-5.5,0-9.9-4.5-9.9-9.9h29.2c2.8,0,5-2.2,5-5s-2.2-5-5-5h-31.2.2Z"/></g></g></g></g></svg>
